<?xml version="1.0" encoding="UTF-8"?>
<svg width="24px" height="24px" viewBox="0 0 24 24" version="1.1" xmlns="http://www.w3.org/2000/svg" xmlns:xlink="http://www.w3.org/1999/xlink">
    <title>close</title>
    <g id="close" stroke="none" stroke-width="1" fill="none" fill-rule="evenodd">
        <path d="M1.29289322,1.29289322 C1.65337718,0.932409257 2.22060824,0.904679722 2.61289944,1.20970461 L2.70710678,1.29289322 L12,10.585 L21.2928932,1.29289322 C21.6834175,0.902368927 22.3165825,0.902368927 22.7071068,1.29289322 C23.0675907,1.65337718 23.0953203,2.22060824 22.7902954,2.61289944 L22.7071068,2.70710678 L13.415,12 L22.7071068,21.2928932 L22.7902954,21.3871006 C23.0953203,21.7793918 23.0675907,22.3466228 22.7071068,22.7071068 C22.3466228,23.0675907 21.7793918,23.0953203 21.3871006,22.7902954 L21.2928932,22.7071068 L12,13.415 L2.70710678,22.7071068 C2.31658249,23.0976311 1.68341751,23.0976311 1.29289322,22.7071068 C0.932409257,22.3466228 0.904679722,21.7793918 1.20970461,21.3871006 L1.29289322,21.2928932 L10.585,12 L1.29289322,2.70710678 L1.20970461,2.61289944 C0.904679722,2.22060824 0.932409257,1.65337718 1.29289322,1.29289322 Z" id="Path" fill="#000000" fill-rule="nonzero"></path>
    </g>
</svg>