<?xml version="1.0" encoding="UTF-8"?>
<svg width="16px" height="16px" viewBox="0 0 16 16" version="1.1" xmlns="http://www.w3.org/2000/svg" xmlns:xlink="http://www.w3.org/1999/xlink">
    <title>Artboard</title>
    <g id="Artboard" stroke="none" stroke-width="1" fill="none" fill-rule="evenodd">
        <path d="M2.95604519,1.55285036 L3.05025253,1.63603897 L7.99914575,6.58514575 L12.9497475,1.63603897 C13.3402718,1.24551468 13.9734367,1.24551468 14.363961,1.63603897 C14.724445,1.99652293 14.7521745,2.56375399 14.4471496,2.95604519 L14.363961,3.05025253 L9.41414575,7.99914575 L14.363961,12.9497475 C14.7544853,13.3402718 14.7544853,13.9734367 14.363961,14.363961 C14.0034771,14.724445 13.436246,14.7521745 13.0439548,14.4471496 L12.9497475,14.363961 L7.99914575,9.41414575 L3.05025253,14.363961 C2.65972824,14.7544853 2.02656326,14.7544853 1.63603897,14.363961 C1.27555501,14.0034771 1.24782547,13.436246 1.55285036,13.0439548 L1.63603897,12.9497475 L6.58514575,7.99914575 L1.63603897,3.05025253 C1.24551468,2.65972824 1.24551468,2.02656326 1.63603897,1.63603897 C1.99652293,1.27555501 2.56375399,1.24782547 2.95604519,1.55285036 Z" id="Combined-Shape" fill="#000000" fill-rule="nonzero"></path>
    </g>
</svg>