<svg aria-hidden="true" style="position: absolute; width: 0; height: 0; overflow: hidden;" version="1.1" xmlns="http://www.w3.org/2000/svg" xmlns:xlink="http://www.w3.org/1999/xlink">
<defs>
<symbol id="icon-dropdown" viewBox="0 0 8 10">
<path d="M8.333 3.333h-8.333l4.167 6.667z"></path>
</symbol>
<symbol id="icon-about-dot-me" viewBox="0 0 32 32">
<title>about-dot-me</title>
<path d="M25.275 12.492c-1.69 0-2.625 1.248-2.823 2.604h5.671c-0.154-1.292-1.067-2.603-2.848-2.603zM22.494 16.945c0.289 1.423 1.468 2.425 3.116 2.425 0.892 0 2.178-0.332 2.934-1.125l1.446 1.662c-1.31 1.366-3.265 1.755-4.603 1.755-3.249 0-5.781-2.346-5.781-5.669 0-3.12 2.331-5.686 5.625-5.686 3.182 0 5.538 2.437 5.538 5.666v0.943h-8.274v0.028zM14.51 21.659v-7.003c0-1.201-0.535-1.89-1.647-1.89-1.002 0-1.668 0.72-2.113 1.239v7.68h-2.892v-7.015c0-1.201-0.511-1.886-1.622-1.886-1.001 0-1.692 0.721-2.113 1.238v7.68h-2.891v-11.231h2.892v1.415c0.492-0.571 1.602-1.551 3.335-1.551 1.535 0 2.58 0.646 3.049 1.957 0.645-0.938 1.846-1.957 3.582-1.957 2.092 0 3.311 1.243 3.311 3.646v7.68h-2.896l0.006-0.007z"></path>
</symbol>
<symbol id="icon-airbnb" viewBox="0 0 32 32">
<title>airbnb</title>
<path d="M15.998 23.713c-1.664-2.087-2.642-3.916-2.969-5.483-0.324-1.263-0.196-2.273 0.358-3.033 0.587-0.874 1.461-1.298 2.609-1.298s2.021 0.425 2.608 1.307c0.549 0.751 0.687 1.762 0.352 3.033-0.358 1.598-1.335 3.426-2.967 5.484zM27.809 25.116c-0.228 1.532-1.273 2.804-2.708 3.424-2.77 1.206-5.514-0.718-7.862-3.327 3.883-4.862 4.601-8.646 2.934-11.094-0.978-1.403-2.379-2.086-4.176-2.086-3.622 0-5.614 3.065-4.831 6.622 0.455 1.925 1.663 4.113 3.588 6.56-1.206 1.334-2.35 2.283-3.36 2.87-0.783 0.423-1.532 0.686-2.25 0.748-3.295 0.491-5.878-2.705-4.705-6.002 0.162-0.425 0.486-1.206 1.040-2.414l0.031-0.065c1.801-3.909 3.988-8.352 6.501-13.28l0.065-0.162 0.714-1.372c0.554-1.012 0.782-1.465 1.663-2.022 0.425-0.257 0.946-0.386 1.532-0.386 1.174 0 2.089 0.686 2.48 1.238 0.194 0.294 0.425 0.686 0.716 1.173l0.687 1.339 0.098 0.196c2.511 4.926 4.7 9.36 6.494 13.279l0.032 0.031 0.656 1.502 0.391 0.94c0.299 0.753 0.362 1.503 0.262 2.286zM29.31 22.176c-0.229-0.718-0.62-1.564-1.108-2.576v-0.037c-2.322-4.929-4.48-9.36-6.528-13.342l-0.137-0.199c-1.46-2.993-2.505-4.791-5.54-4.791-3.001 0-4.276 2.085-5.579 4.796l-0.1 0.197c-2.053 3.98-4.209 8.417-6.524 13.344v0.065l-0.687 1.5c-0.258 0.62-0.39 0.945-0.425 1.042-1.662 4.569 1.762 8.581 5.908 8.581 0.033 0 0.162 0 0.325-0.033h0.458c2.154-0.262 4.373-1.631 6.624-4.081 2.25 2.447 4.471 3.819 6.622 4.081h0.458c0.162 0.033 0.293 0.033 0.325 0.033 4.145 0.004 7.569-4.012 5.908-8.581z"></path>
</symbol>
<symbol id="icon-amazon" viewBox="0 0 32 32">
<title>amazon</title>
<path d="M1.286 23.409c0.089-0.143 0.23-0.153 0.428-0.027 4.475 2.597 9.346 3.897 14.609 3.897 3.51 0 6.976-0.656 10.396-1.963l0.388-0.172c0.17-0.074 0.288-0.123 0.361-0.16 0.278-0.108 0.48-0.057 0.646 0.16 0.148 0.214 0.111 0.414-0.148 0.591-0.315 0.234-0.738 0.505-1.238 0.805-1.531 0.914-3.249 1.62-5.151 2.124-1.883 0.5-3.748 0.751-5.558 0.751-2.788 0-5.428-0.487-7.92-1.461-2.486-0.977-4.702-2.351-6.683-4.123-0.123-0.091-0.185-0.185-0.185-0.271 0-0.058 0.025-0.111 0.062-0.16zM9.366 15.756c0-1.237 0.304-2.293 0.914-3.172 0.609-0.874 1.44-1.538 2.511-1.988 0.98-0.412 2.161-0.708 3.584-0.886 0.48-0.057 1.271-0.127 2.363-0.214v-0.455c0-1.145-0.129-1.918-0.369-2.308-0.372-0.529-0.96-0.8-1.772-0.8h-0.224c-0.591 0.057-1.103 0.241-1.534 0.566-0.431 0.332-0.708 0.775-0.831 1.349-0.074 0.369-0.254 0.572-0.535 0.628l-3.102-0.388c-0.305-0.074-0.458-0.222-0.458-0.48 0-0.057 0.009-0.111 0.027-0.185 0.304-1.588 1.052-2.769 2.24-3.545 1.201-0.758 2.585-1.2 4.172-1.292h0.665c2.031 0 3.639 0.534 4.785 1.588 0.166 0.185 0.332 0.369 0.498 0.591 0.148 0.203 0.276 0.386 0.348 0.554 0.092 0.165 0.185 0.406 0.24 0.702 0.074 0.313 0.129 0.517 0.166 0.628 0.037 0.128 0.076 0.369 0.094 0.757 0.012 0.385 0.025 0.607 0.025 0.681v6.498c0 0.463 0.074 0.886 0.203 1.275 0.129 0.385 0.258 0.665 0.388 0.83l0.628 0.83c0.111 0.167 0.167 0.315 0.167 0.443 0 0.148-0.074 0.278-0.222 0.386-1.477 1.292-2.289 1.994-2.416 2.105-0.203 0.166-0.462 0.185-0.775 0.055-0.24-0.204-0.462-0.409-0.647-0.61l-0.382-0.427c-0.074-0.091-0.204-0.258-0.39-0.517l-0.369-0.535c-0.997 1.090-1.973 1.772-2.954 2.049-0.608 0.185-1.345 0.279-2.252 0.279-1.366 0-2.511-0.422-3.397-1.273-0.886-0.849-1.329-2.049-1.329-3.618l-0.062-0.094zM13.985 15.217c0 0.697 0.172 1.255 0.523 1.679 0.351 0.418 0.831 0.63 1.422 0.63 0.055 0 0.13-0.009 0.24-0.025 0.111-0.020 0.165-0.028 0.204-0.028 0.756-0.197 1.329-0.681 1.753-1.45 0.203-0.345 0.351-0.714 0.443-1.12 0.111-0.394 0.148-0.726 0.166-0.985 0.018-0.24 0.018-0.665 0.018-1.237v-0.665c-1.034 0-1.826 0.074-2.363 0.222-1.569 0.443-2.363 1.44-2.363 2.991l-0.043-0.025zM25.262 23.866c0.037-0.074 0.092-0.135 0.162-0.209 0.446-0.299 0.879-0.505 1.292-0.615 0.677-0.164 1.342-0.273 1.984-0.295 0.172-0.015 0.345 0 0.505 0.037 0.8 0.074 1.292 0.207 1.442 0.406 0.078 0.111 0.111 0.281 0.111 0.48v0.185c0 0.628-0.172 1.366-0.511 2.215-0.342 0.849-0.817 1.536-1.423 2.068-0.090 0.074-0.172 0.111-0.242 0.111-0.037 0-0.074 0-0.111-0.015-0.111-0.054-0.132-0.148-0.079-0.295 0.665-1.551 0.992-2.638 0.992-3.249 0-0.185-0.037-0.332-0.107-0.423-0.178-0.204-0.677-0.316-1.506-0.316-0.299 0-0.656 0.020-1.071 0.057-0.447 0.055-0.862 0.111-1.231 0.166-0.111 0-0.182-0.017-0.222-0.054-0.037-0.037-0.044-0.058-0.025-0.095 0-0.021 0.007-0.037 0.025-0.078v-0.074z"></path>
</symbol>
<symbol id="icon-americanexpress" viewBox="0 0 32 32">
<title>americanexpress</title>
<path d="M20.942 18.927c0-0.394-0.166-0.61-0.423-0.766-0.258-0.148-0.571-0.166-0.997-0.166h-1.899v3.471h0.831v-1.264h0.886c0.295 0 0.48 0.030 0.588 0.154 0.148 0.16 0.128 0.468 0.128 0.677v0.431h0.812v-0.683c-0.002-0.308-0.021-0.463-0.133-0.635-0.074-0.098-0.222-0.222-0.406-0.288l0.025-0.010c0.222-0.089 0.591-0.366 0.591-0.919zM19.871 19.428l-0.034-0.002c-0.111 0.065-0.24 0.071-0.406 0.071h-0.997v-0.775h1.014c0.148 0 0.295 0 0.406 0.062 0.121 0.059 0.192 0.181 0.185 0.314 0 0.148-0.055 0.265-0.165 0.332zM26.212 20.722h-1.596v0.738h1.605c0.832 0 1.292-0.342 1.292-1.088 0-0.345-0.081-0.551-0.23-0.716-0.188-0.164-0.482-0.238-0.898-0.255l-0.463-0.018c-0.128 0-0.222 0-0.314-0.037-0.111-0.037-0.185-0.129-0.185-0.258 0-0.111 0.021-0.204 0.111-0.258 0.102-0.057 0.218-0.081 0.335-0.074h1.514v-0.741h-1.662c-0.866 0-1.179 0.538-1.179 1.034 0 1.108 0.955 1.052 1.732 1.071 0.128 0 0.222 0.018 0.277 0.074 0.057 0.037 0.101 0.13 0.101 0.222 0 0.095-0.043 0.185-0.098 0.222-0.074 0.065-0.185 0.086-0.341 0.086zM1.231 1.231v12.426l0.997-2.309h2.154l0.277 0.571v-0.571h2.514l0.554 1.255 0.538-1.247h8.002c0.363 0 0.689 0.070 0.93 0.29v-0.283h2.199v0.283c0.378-0.209 0.844-0.283 1.378-0.283h3.207l0.295 0.574v-0.574h2.361l0.313 0.572v-0.574h2.287v4.859h-2.321l-0.443-0.738v0.72h-2.896l-0.315-0.775h-0.718l-0.332 0.756h-1.493c-0.591 0-1.034-0.128-1.329-0.295v0.295h-3.557v-1.088c0-0.148-0.037-0.148-0.129-0.166h-0.129v1.275h-6.878v-0.591l-0.258 0.591h-1.436l-0.249-0.591v0.572h-2.773l-0.315-0.768h-0.713l-0.315 0.768h-1.408v14.583h29.275v-8.748c-0.332 0.166-0.754 0.222-1.198 0.222h-2.121v-0.314c-0.258 0.203-0.702 0.314-1.125 0.314h-6.727v-1.108c0-0.148-0.022-0.148-0.148-0.148h-0.092v1.258h-2.215v-1.312c-0.367 0.167-0.791 0.185-1.142 0.167h-0.263v1.126h-2.683l-0.665-0.759-0.702 0.738h-4.358v-4.837h4.443l0.638 0.741 0.682-0.738h2.969c0.345 0 0.911 0.037 1.159 0.277v-0.295h2.679c0.249 0 0.793 0.055 1.111 0.277v-0.295h4.018v0.295c0.201-0.202 0.625-0.295 0.988-0.295h2.326v0.295c0.239-0.185 0.571-0.295 1.034-0.295h1.447v-16.103h-29.332zM27.269 19.637c0.005 0.006 0.007 0.015 0.012 0.020 0.012 0.012 0.030 0.012 0.039 0.025l-0.052-0.043zM30.558 17.332h0.080v0.683h-0.080zM30.603 19.729v-0.006c-0.037-0.031-0.057-0.059-0.092-0.086-0.185-0.188-0.48-0.265-0.94-0.277l-0.443-0.015c-0.148 0-0.239-0.009-0.332-0.037-0.111-0.037-0.185-0.129-0.185-0.258 0-0.111 0.037-0.197 0.111-0.251 0.094-0.055 0.185-0.062 0.332-0.062h1.505v-0.724h-1.579c-0.849 0-1.182 0.538-1.182 1.034 0 1.108 0.96 1.052 1.735 1.071 0.128 0 0.222 0.018 0.276 0.074 0.057 0.037 0.094 0.13 0.094 0.222 0 0.086-0.042 0.17-0.111 0.222-0.055 0.069-0.167 0.086-0.332 0.086h-1.585v0.745h1.584c0.517 0 0.903-0.145 1.108-0.443h0.037c0.111-0.165 0.166-0.369 0.166-0.644 0-0.295-0.055-0.48-0.166-0.647zM24.119 18.718v-0.718h-2.751v3.487h2.751v-0.72h-1.932v-0.702h1.887v-0.719h-1.886v-0.628zM17.858 12.046h0.843v3.462h-0.842zM17.386 12.976l-0.009 0.007c0-0.386-0.16-0.615-0.418-0.768-0.267-0.154-0.578-0.166-0.997-0.166h-1.894v3.471h0.83v-1.273h0.886c0.295 0 0.48 0.037 0.599 0.148 0.15 0.167 0.132 0.465 0.132 0.674v0.436h0.833v-0.681c0-0.308-0.020-0.462-0.135-0.635-0.111-0.132-0.249-0.234-0.406-0.292 0.212-0.086 0.581-0.369 0.581-0.923zM16.334 13.463h-0.018c-0.111 0.066-0.24 0.069-0.406 0.069h-1.017v-0.767h1.015c0.148 0 0.295 0.005 0.406 0.062 0.111 0.049 0.185 0.158 0.185 0.308s-0.058 0.271-0.165 0.327zM20.825 12.767h0.778v-0.738h-0.793c-0.571 0-0.99 0.129-1.255 0.406-0.352 0.369-0.446 0.849-0.446 1.366 0 0.63 0.151 1.025 0.443 1.322 0.286 0.293 0.794 0.382 1.194 0.382h0.96l0.314-0.772h1.711l0.322 0.772h1.674v-2.597l1.566 2.597h1.169l0.002 0.002v-3.462h-0.842v2.416l-1.452-2.412h-1.255v3.214l-1.394-3.269h-1.236l-1.161 2.732h-0.369c-0.218 0-0.446-0.037-0.576-0.165-0.154-0.185-0.229-0.443-0.229-0.815 0-0.351 0.098-0.628 0.239-0.775 0.164-0.166 0.335-0.203 0.635-0.203zM22.878 12.634l0.571 1.376v0.002h-1.145l0.574-1.378zM4.16 14.732l0.313 0.773h1.681v-2.714l1.196 2.714h0.719l1.198-2.71 0.018 2.71h0.849v-3.458h-1.374l-0.993 2.343-1.078-2.345h-1.344v3.278l-1.401-3.278h-1.227l-1.474 3.458h0.886l0.32-0.77h1.711zM3.313 12.634l0.566 1.376-0.004 0.002h-1.126l0.562-1.378zM15.823 17.994h-2.636l-1.046 1.136-1.015-1.135h-3.314v3.471h3.266l1.052-1.147 1.014 1.145h1.602v-1.157h1.031c0.738 0 1.44-0.202 1.44-1.163l-0.007-0.004c0-0.96-0.736-1.145-1.388-1.145zM10.671 20.742l-0.017-0.002h-2.014v-0.686h1.809v-0.706h-1.809v-0.628h2.068l0.902 1.009-0.94 1.014zM13.922 21.148l-1.268-1.412 1.268-1.364v2.773zM15.834 19.6h-1.089v-0.882h1.089c0.295 0 0.517 0.121 0.517 0.423 0 0.299-0.185 0.458-0.517 0.458zM13.498 12.767v-0.721h-2.753v3.462h2.753v-0.714h-1.929v-0.694h1.879v-0.709h-1.879v-0.624z"></path>
</symbol>
<symbol id="icon-apple" viewBox="0 0 32 32">
<title>apple</title>
<path d="M9.942 30.215c-0.582-0.389-1.099-0.865-1.531-1.415-0.471-0.57-0.908-1.169-1.31-1.79-0.943-1.378-1.68-2.886-2.191-4.475-0.615-1.849-0.914-3.618-0.914-5.35 0-1.932 0.418-3.618 1.233-5.034 0.603-1.108 1.502-2.034 2.585-2.686 1.046-0.652 2.265-1.009 3.495-1.034 0.431 0 0.898 0.062 1.391 0.185 0.357 0.098 0.788 0.258 1.317 0.455 0.677 0.258 1.046 0.418 1.169 0.455 0.394 0.148 0.726 0.209 0.985 0.209 0.197 0 0.48-0.062 0.794-0.16 0.178-0.062 0.517-0.172 0.997-0.382 0.475-0.172 0.852-0.32 1.151-0.431 0.455-0.135 0.896-0.258 1.292-0.32 0.48-0.074 0.956-0.098 1.413-0.062 0.874 0.062 1.674 0.246 2.388 0.517 1.255 0.505 2.268 1.292 3.024 2.412-0.32 0.197-0.615 0.426-0.892 0.677-0.599 0.529-1.108 1.157-1.514 1.852-0.529 0.948-0.8 2.018-0.793 3.102 0.018 1.333 0.357 2.505 1.034 3.52 0.476 0.738 1.113 1.371 1.888 1.89 0.382 0.258 0.716 0.437 1.034 0.554-0.148 0.462-0.31 0.911-0.498 1.354-0.427 0.993-0.935 1.945-1.538 2.843-0.532 0.775-0.95 1.354-1.268 1.735-0.495 0.591-0.972 1.034-1.452 1.35-0.529 0.351-1.151 0.537-1.787 0.537-0.431 0.018-0.862-0.037-1.273-0.156-0.357-0.117-0.709-0.249-1.054-0.398-0.361-0.165-0.734-0.305-1.114-0.418-0.468-0.123-0.948-0.182-1.433-0.181-0.492 0-0.972 0.062-1.428 0.178-0.382 0.108-0.751 0.241-1.116 0.4-0.517 0.215-0.855 0.357-1.052 0.418-0.399 0.118-0.807 0.19-1.218 0.215-0.64 0-1.236-0.185-1.829-0.554zM18.378 7.495c-0.837 0.418-1.632 0.596-2.428 0.537-0.123-0.795 0-1.612 0.332-2.507 0.295-0.763 0.689-1.452 1.231-2.068 0.566-0.64 1.243-1.169 2.006-1.551 0.812-0.418 1.588-0.64 2.326-0.677 0.098 0.837 0 1.662-0.308 2.548-0.281 0.788-0.699 1.514-1.231 2.166-0.535 0.64-1.2 1.169-1.952 1.551z"></path>
</symbol>
<symbol id="icon-applepay" viewBox="0 0 32 32">
<title>applepay</title>
<path d="M6.631 11.426c-0.347 0.415-0.901 0.741-1.455 0.694-0.069-0.56 0.202-1.154 0.519-1.522 0.347-0.426 0.953-0.727 1.442-0.752 0.058 0.583-0.167 1.154-0.507 1.58zM7.132 12.231c-0.801-0.047-1.489 0.462-1.868 0.462-0.388 0-0.97-0.438-1.605-0.426-0.825 0.012-1.591 0.484-2.012 1.237-0.866 1.504-0.225 3.733 0.61 4.958 0.41 0.607 0.901 1.271 1.547 1.248 0.61-0.023 0.853-0.402 1.591-0.402 0.745 0 0.958 0.402 1.605 0.391 0.668-0.012 1.089-0.607 1.499-1.214 0.468-0.689 0.658-1.359 0.67-1.394-0.012-0.012-1.292-0.507-1.305-2-0.011-1.249 1.009-1.844 1.056-1.878-0.576-0.864-1.477-0.958-1.788-0.981zM11.766 10.54v9.094h1.397v-3.109h1.932c1.765 0 3.006-1.226 3.006-2.998 0-1.774-1.217-2.987-2.959-2.987h-3.377zM13.163 11.73h1.61c1.211 0 1.903 0.652 1.903 1.802s-0.692 1.809-1.909 1.809h-1.605v-3.612zM20.651 19.703c0.878 0 1.691-0.448 2.060-1.161h0.028v1.092h1.292v-4.527c0-1.312-1.039-2.159-2.636-2.159-1.483 0-2.578 0.858-2.619 2.036h1.258c0.103-0.56 0.617-0.927 1.321-0.927 0.854 0 1.333 0.402 1.333 1.143v0.501l-1.743 0.106c-1.621 0.098-2.498 0.769-2.498 1.936 0 1.178 0.906 1.959 2.204 1.959zM21.026 18.625c-0.745 0-1.218-0.362-1.218-0.916 0-0.572 0.457-0.905 1.328-0.958l1.551-0.098v0.513c0 0.852-0.714 1.458-1.662 1.458zM25.758 22.108c1.361 0 2.001-0.526 2.56-2.118l2.452-6.954h-1.419l-1.644 5.372h-0.028l-1.644-5.372h-1.46l2.364 6.622-0.127 0.402c-0.213 0.682-0.559 0.944-1.177 0.944-0.11 0-0.322-0.012-0.41-0.023v1.092c0.081 0.023 0.427 0.034 0.532 0.034z"></path>
</symbol>
<symbol id="icon-basecamp" viewBox="0 0 32 32">
<title>basecamp</title>
<path d="M16 3.692c-7.951 0-14.178 10.117-14.769 18.658 2.496 4.332 8.511 5.957 14.769 5.957s12.277-1.625 14.769-5.957c-0.591-8.544-6.818-18.658-14.769-18.658zM16.185 26.338c-11.742 0-12.869-4.965-12.869-4.965l0.222-1.201s3.232-6.978 5.263-6.978 2.88 2.88 4.542 2.88 5.26-6.388 6.553-6.388c1.289 0 3.471 2.4 5.255 4.615 1.785 2.218 3.542 6.015 3.542 6.015l-0.010 0.042 0.185 1.090s-0.943 4.89-12.684 4.89z"></path>
</symbol>
<symbol id="icon-baseline-check_box-24px" viewBox="0 0 32 32">
<title>baseline-check_box-24px</title>
<path d="M24.615 4.923h-17.231c-1.366 0-2.462 1.108-2.462 2.462v17.231c0 1.354 1.095 2.462 2.462 2.462h17.231c1.366 0 2.462-1.108 2.462-2.462v-17.231c0-1.354-1.095-2.462-2.462-2.462zM13.538 22.154l-6.154-6.154 1.735-1.735 4.418 4.406 9.342-9.342 1.735 1.748-11.077 11.077z"></path>
</symbol>
<symbol id="icon-baseline-check_box_outline_blank-24px" viewBox="0 0 32 32">
<title>baseline-check_box_outline_blank-24px</title>
<path d="M24.615 7.385v17.231h-17.231v-17.231h17.231zM24.615 4.923h-17.231c-1.354 0-2.462 1.108-2.462 2.462v17.231c0 1.354 1.108 2.462 2.462 2.462h17.231c1.354 0 2.462-1.108 2.462-2.462v-17.231c0-1.354-1.108-2.462-2.462-2.462z"></path>
</symbol>
<symbol id="icon-baseline-check_circle-24px" viewBox="0 0 32 32">
<title>baseline-check_circle-24px</title>
<path d="M16 3.692c-6.794 0-12.308 5.514-12.308 12.308s5.514 12.308 12.308 12.308 12.308-5.514 12.308-12.308-5.514-12.308-12.308-12.308zM13.538 22.154l-6.154-6.154 1.735-1.735 4.418 4.406 9.342-9.342 1.735 1.748-11.077 11.077z"></path>
</symbol>
<symbol id="icon-baseline-chevron_left-24px" viewBox="0 0 32 32">
<title>baseline-chevron_left-24px</title>
<path d="M20.197 10.351l-1.735-1.735-7.385 7.385 7.385 7.385 1.735-1.735-5.637-5.649z"></path>
</symbol>
<symbol id="icon-baseline-chevron_right-24px" viewBox="0 0 32 32">
<title>baseline-chevron_right-24px</title>
<path d="M13.538 8.615l-1.735 1.735 5.637 5.649-5.637 5.649 1.735 1.735 7.385-7.385z"></path>
</symbol>
<symbol id="icon-baseline-edit-24px" viewBox="0 0 32 32">
<title>baseline-edit-24px</title>
<path d="M4 23v5h5l14.747-14.747-5-5-14.747 14.747zM27.613 9.387c0.52-0.52 0.52-1.36 0-1.88l-3.12-3.12c-0.52-0.52-1.36-0.52-1.88 0l-2.44 2.44 5 5 2.44-2.44z"></path>
</symbol>
<symbol id="icon-baseline-error-24px" viewBox="0 0 32 32">
<title>baseline-error-24px</title>
<path d="M16 3.692c-6.794 0-12.308 5.514-12.308 12.308s5.514 12.308 12.308 12.308 12.308-5.514 12.308-12.308-5.514-12.308-12.308-12.308zM17.231 22.154h-2.462v-2.462h2.462v2.462zM17.231 17.231h-2.462v-7.385h2.462v7.385z"></path>
</symbol>
<symbol id="icon-baseline-expand_less-24px" viewBox="0 0 32 32">
<title>baseline-expand_less-24px</title>
<path d="M16 11.077l-7.385 7.385 1.735 1.735 5.649-5.637 5.649 5.637 1.735-1.735z"></path>
</symbol>
<symbol id="icon-baseline-expand_more-24px" viewBox="0 0 32 32">
<title>baseline-expand_more-24px</title>
<path d="M21.649 11.803l-5.649 5.637-5.649-5.637-1.735 1.735 7.385 7.385 7.385-7.385z"></path>
</symbol>
<symbol id="icon-baseline-info-24px" viewBox="0 0 32 32">
<title>baseline-info-24px</title>
<path d="M16 3.692c-6.794 0-12.308 5.514-12.308 12.308s5.514 12.308 12.308 12.308 12.308-5.514 12.308-12.308-5.514-12.308-12.308-12.308zM17.231 22.154h-2.462v-7.385h2.462v7.385zM17.231 12.308h-2.462v-2.462h2.462v2.462z"></path>
</symbol>
<symbol id="icon-baseline-mail-24px" viewBox="0 0 32 32">
<title>baseline-mail-24px</title>
<path d="M25.846 6.154h-19.692c-1.354 0-2.449 1.108-2.449 2.462l-0.012 14.769c0 1.354 1.108 2.462 2.462 2.462h19.692c1.354 0 2.462-1.108 2.462-2.462v-14.769c0-1.354-1.108-2.462-2.462-2.462zM25.846 11.077l-9.846 6.154-9.846-6.154v-2.462l9.846 6.154 9.846-6.154v2.462z"></path>
</symbol>
<symbol id="icon-baseline-radio_button_checked-24px" viewBox="0 0 32 32">
<title>baseline-radio_button_checked-24px</title>
<path d="M16 9.846c-3.397 0-6.154 2.757-6.154 6.154s2.757 6.154 6.154 6.154 6.154-2.757 6.154-6.154-2.757-6.154-6.154-6.154zM16 3.692c-6.794 0-12.308 5.514-12.308 12.308s5.514 12.308 12.308 12.308 12.308-5.514 12.308-12.308-5.514-12.308-12.308-12.308zM16 25.846c-5.44 0-9.846-4.406-9.846-9.846s4.406-9.846 9.846-9.846 9.846 4.406 9.846 9.846-4.406 9.846-9.846 9.846z"></path>
</symbol>
<symbol id="icon-baseline-radio_button_unchecked-24px" viewBox="0 0 32 32">
<title>baseline-radio_button_unchecked-24px</title>
<path d="M16 3.692c-6.794 0-12.308 5.514-12.308 12.308s5.514 12.308 12.308 12.308 12.308-5.514 12.308-12.308-5.514-12.308-12.308-12.308zM16 25.846c-5.44 0-9.846-4.406-9.846-9.846s4.406-9.846 9.846-9.846 9.846 4.406 9.846 9.846-4.406 9.846-9.846 9.846z"></path>
</symbol>
<symbol id="icon-baseline-search-24px" viewBox="0 0 32 32">
<title>baseline-search-24px</title>
<path d="M20.308 18.462h-0.972l-0.345-0.332c1.206-1.403 1.932-3.225 1.932-5.206 0-4.418-3.582-8-8-8s-8 3.582-8 8 3.582 8 8 8c1.982 0 3.803-0.726 5.206-1.932l0.332 0.345v0.972l6.154 6.142 1.834-1.834-6.142-6.154zM12.923 18.462c-3.065 0-5.538-2.474-5.538-5.538s2.474-5.538 5.538-5.538 5.538 2.474 5.538 5.538-2.474 5.538-5.538 5.538z"></path>
</symbol>
<symbol id="icon-arrow_back-24px" viewBox="0 0 32 32">
<title>arrow_back-24px</title>
<path d="M25.333 14.667h-14.893l6.507-6.507c0.52-0.52 0.52-1.373 0-1.893s-1.36-0.52-1.88 0l-8.787 8.787c-0.52 0.52-0.52 1.36 0 1.88l8.787 8.787c0.52 0.52 1.36 0.52 1.88 0s0.52-1.36 0-1.88l-6.507-6.507h14.893c0.733 0 1.333-0.6 1.333-1.333s-0.6-1.333-1.333-1.333z"></path>
</symbol>
<symbol id="icon-more_horiz-24px" viewBox="0 0 32 32">
<title>more_horiz-24px</title>
<path d="M8 13.333c-1.467 0-2.667 1.2-2.667 2.667s1.2 2.667 2.667 2.667 2.667-1.2 2.667-2.667-1.2-2.667-2.667-2.667zM24 13.333c-1.467 0-2.667 1.2-2.667 2.667s1.2 2.667 2.667 2.667 2.667-1.2 2.667-2.667-1.2-2.667-2.667-2.667zM16 13.333c-1.467 0-2.667 1.2-2.667 2.667s1.2 2.667 2.667 2.667 2.667-1.2 2.667-2.667-1.2-2.667-2.667-2.667z"></path>
</symbol>
<symbol id="icon-toggle-open" viewBox="0 0 112 32">
<title>toggle-open</title>
<path d="M112 28v4h-112v-4z"></path><path d="M112 0v4h-112v-4z"></path>
</symbol>
<symbol id="icon-toggle-close" viewBox="0 0 90 32">>
<title>toggle-close</title>
<path d="M25.6 0v14.4h64v3.2h-64.003l0.003 14.4-25.6-16 25.6-16z"></path>
</symbol>
<symbol id="icon-star-line" viewBox="0 0 20 20">>
<title>star-line</title>
<path d="M10.5 0v8.792l6.218-6.217 0.707 0.707-6.218 6.217 8.793 0.001v1l-8.794-0.001 6.219 6.219-0.707 0.707-6.218-6.218v8.793h-1v-8.794l-6.218 6.219-0.707-0.707 6.218-6.219-8.793 0.001v-1l8.792-0.001-6.217-6.217 0.707-0.707 6.218 6.218v-8.793h1z"></path>
</symbol>
<symbol id="icon-behance" viewBox="0 0 32 32">
<title>behance</title>
<path d="M9.77 6.773c0.864 0 1.649 0.074 2.363 0.231 0.71 0.16 1.317 0.406 1.828 0.751 0.505 0.345 0.902 0.8 1.182 1.378 0.277 0.578 0.418 1.292 0.418 2.129 0 0.911-0.209 1.674-0.624 2.289-0.416 0.615-1.030 1.108-1.849 1.502 1.115 0.32 1.94 0.886 2.489 1.686 0.551 0.812 0.818 1.785 0.818 2.905 0 0.923-0.16 1.711-0.505 2.375-0.345 0.677-0.825 1.231-1.428 1.662-0.591 0.428-1.292 0.738-2.055 0.944-0.751 0.203-1.541 0.313-2.351 0.313h-8.826v-18.156h8.539v-0.009zM22.080 21.742c0.542 0.527 1.321 0.791 2.331 0.791 0.726 0 1.354-0.182 1.883-0.55 0.522-0.357 0.837-0.751 0.96-1.157h3.185c-0.496 1.575-1.29 2.708-2.338 3.385-1.046 0.689-2.319 1.022-3.791 1.022-1.030 0-1.95-0.16-2.796-0.492-0.828-0.332-1.526-0.8-2.117-1.403-0.571-0.603-1.013-1.329-1.326-2.178-0.311-0.849-0.459-1.785-0.459-2.794 0-0.988 0.166-1.895 0.496-2.745 0.332-0.862 0.793-1.575 1.378-2.203 0.609-0.628 1.308-1.102 2.137-1.47s1.723-0.533 2.732-0.533c1.12 0 2.080 0.202 2.929 0.644 0.825 0.418 1.502 1.009 2.043 1.723 0.542 0.721 0.923 1.551 1.157 2.486 0.234 0.923 0.308 1.895 0.258 2.929h-9.465c0 1.034 0.345 2.009 0.874 2.542l-0.098 0.037zM9.477 21.803c0.39 0 0.763-0.037 1.115-0.114 0.357-0.074 0.674-0.203 0.939-0.369 0.258-0.166 0.48-0.404 0.64-0.718 0.16-0.295 0.234-0.702 0.234-1.182 0-0.923-0.271-1.588-0.788-1.994-0.529-0.394-1.218-0.591-2.080-0.591h-4.319v4.985h4.258v-0.037zM26.224 14.849c-0.433-0.474-1.157-0.729-2.039-0.729-0.576 0-1.052 0.091-1.435 0.293-0.372 0.185-0.677 0.431-0.911 0.726s-0.39 0.591-0.482 0.923c-0.092 0.32-0.148 0.615-0.166 0.874h5.861c-0.086-0.923-0.406-1.6-0.837-2.080v0.012zM9.255 14.092c0.706 0 1.292-0.165 1.754-0.507 0.46-0.332 0.682-0.886 0.682-1.647 0-0.423-0.086-0.769-0.222-1.041-0.16-0.271-0.369-0.48-0.615-0.63-0.258-0.153-0.554-0.258-0.886-0.316-0.332-0.065-0.689-0.091-1.034-0.091h-3.728v4.234h4.049zM20.453 7.99h7.345v1.79h-7.345v-1.792z"></path>
</symbol>
<symbol id="icon-bitbucket" viewBox="0 0 32 32">
<title>bitbucket</title>
<path d="M2.188 2.721c-0.522-0.007-0.95 0.411-0.958 0.933 0 0.055 0.002 0.111 0.012 0.165l4.016 24.383c0.103 0.614 0.634 1.067 1.258 1.073h19.268c0.47 0.005 0.871-0.334 0.948-0.795l4.025-24.652c0.084-0.514-0.266-1.001-0.782-1.084-0.055-0.010-0.11-0.014-0.164-0.012l-27.623-0.010zM19.102 20.342h-6.151l-1.664-8.694h9.306l-1.49 8.694z"></path>
</symbol>
<symbol id="icon-codepen" viewBox="0 0 32 32">
<title>codepen</title>
<path d="M30.769 11.301l-0.022-0.107-0.021-0.062c-0.012-0.030-0.022-0.062-0.037-0.092-0.004-0.022-0.018-0.042-0.025-0.062l-0.043-0.082-0.037-0.062-0.054-0.074-0.057-0.055-0.074-0.055-0.057-0.037-0.074-0.054-0.054-0.049-0.018-0.025-13.483-9.020c-0.427-0.286-0.98-0.286-1.406 0l-13.666 9.122-0.047 0.049-0.062 0.069-0.046 0.055-0.062 0.074c-0.025 0.021-0.037 0.037-0.037 0.057l-0.062 0.074-0.025 0.074c-0.025 0.012-0.025 0.049-0.037 0.086l-0.012 0.062c-0.023 0.038-0.023 0.075-0.023 0.112v9.227c0 0.054 0.004 0.111 0.012 0.166l0.012 0.057c0.006 0.037 0.012 0.074 0.025 0.106l0.018 0.062c0.012 0.033 0.020 0.065 0.033 0.092l0.027 0.062c0 0.012 0.018 0.049 0.037 0.074l0.037 0.049c0.018 0.012 0.037 0.049 0.055 0.074l0.037 0.049 0.049 0.049c0.012 0.016 0.012 0.037 0.037 0.037l0.074 0.052 0.049 0.037 0.012 0.017 13.502 9.022c0.202 0.148 0.462 0.201 0.702 0.201s0.48-0.074 0.702-0.222l13.733-9.115 0.064-0.071 0.041-0.055 0.049-0.074 0.037-0.062 0.037-0.086 0.020-0.064 0.037-0.095 0.018-0.055 0.037-0.098v-9.231c0-0.062 0-0.117-0.020-0.172l-0.017-0.055 0.054 0.004zM16.012 19.030l-4.492-3.003 4.492-3.006 4.492 3.003-4.492 3.003zM14.74 10.816l-5.505 3.68-4.447-2.974 9.952-6.634v5.93zM6.949 16.026l-3.178 2.129v-4.247l3.178 2.124zM9.234 17.564l5.505 3.68v5.932l-9.952-6.635 4.453-2.975v-0.005zM17.28 21.244l5.506-3.668 4.447 2.978-9.953 6.634v-5.932zM25.071 16.038l3.179-2.117v4.254l-3.179-2.129zM22.788 14.512l-5.505-3.681v-5.945l9.951 6.634-4.446 2.976z"></path>
</symbol>
<symbol id="icon-dribbble" viewBox="0 0 32 32">
<title>dribbble</title>
<path d="M16 30.769c-8.142 0-14.769-6.628-14.769-14.769s6.628-14.769 14.769-14.769 14.769 6.628 14.769 14.769-6.628 14.769-14.769 14.769zM28.455 18.021c-0.431-0.135-3.902-1.173-7.857-0.539 1.649 4.534 2.322 8.226 2.452 8.994 2.831-1.914 4.844-4.948 5.409-8.455zM20.929 27.631c-0.188-1.108-0.923-4.962-2.695-9.563l-0.081 0.025c-7.126 2.48-9.674 7.415-9.895 7.877 2.129 1.671 4.825 2.666 7.742 2.666 1.748 0 3.409-0.357 4.923-1.002zM6.628 24.455c0.286-0.492 3.748-6.222 10.255-8.326 0.166-0.055 0.332-0.103 0.498-0.148-0.32-0.72-0.665-1.436-1.024-2.142-6.302 1.883-12.411 1.803-12.965 1.791l-0.005 0.384c0 3.241 1.228 6.199 3.242 8.437zM3.649 13.434c0.566 0.010 5.764 0.032 11.664-1.536-2.090-3.714-4.345-6.841-4.677-7.296-3.53 1.662-6.166 4.911-6.986 8.825zM13.046 3.756c0.347 0.468 2.64 3.586 4.704 7.385 4.486-1.68 6.388-4.234 6.613-4.556-2.228-1.982-5.157-3.183-8.363-3.183-1.015 0-2.006 0.123-2.954 0.351zM25.766 8.043c-0.268 0.357-2.382 3.068-7.045 4.972 0.295 0.603 0.578 1.212 0.837 1.829 0.098 0.222 0.185 0.443 0.271 0.652 4.197-0.529 8.369 0.32 8.788 0.406-0.025-2.978-1.083-5.711-2.843-7.852z"></path>
</symbol>
<symbol id="icon-dropbox" viewBox="0 0 32 32">
<title>dropbox</title>
<path d="M8.615 3.455l-7.385 4.704 7.385 4.704 7.386-4.704-7.386-4.704zM23.385 3.455l-7.385 4.704 7.385 4.704 7.385-4.704-7.385-4.704zM1.231 17.568l7.385 4.704 7.386-4.704-7.386-4.704-7.385 4.704zM23.385 12.864l-7.385 4.704 7.385 4.704 7.385-4.704-7.385-4.704zM8.615 23.841l7.386 4.704 7.385-4.704-7.385-4.704-7.386 4.704z"></path>
</symbol>
<symbol id="icon-ello" viewBox="0 0 32 32">
<title>ello</title>
<path d="M16 1.231c-8.151 0-14.769 6.618-14.769 14.769s6.618 14.769 14.769 14.769 14.769-6.618 14.769-14.769-6.618-14.769-14.769-14.769zM24.566 18.215c-0.985 3.889-4.529 6.646-8.566 6.646s-7.582-2.757-8.566-6.646c-0.098-0.443 0.148-0.935 0.591-1.034s0.935 0.148 1.034 0.591c0.837 3.151 3.692 5.366 6.942 5.366s6.105-2.215 6.942-5.366c0.098-0.443 0.591-0.738 1.034-0.591 0.443 0.098 0.738 0.591 0.591 1.034z"></path>
</symbol>
<symbol id="icon-etsy" viewBox="0 0 32 32">
<title>etsy</title>
<path d="M11.771 4.24c0-0.4 0.041-0.64 0.726-0.64h9.188c1.6 0 2.486 1.366 3.126 3.93l0.517 2.050h1.563c0.283-5.819 0.529-8.35 0.529-8.35s-3.934 0.443-6.265 0.443h-11.753l-6.294-0.202v1.686l2.123 0.401c1.489 0.295 1.846 0.61 1.969 1.977 0 0 0.135 4.025 0.135 10.634 0 6.628-0.111 10.597-0.111 10.597 0 1.198-0.48 1.641-1.957 1.936l-2.119 0.406v1.66l6.314-0.203h10.523c2.382 0 7.865 0.203 7.865 0.203 0.129-1.44 0.923-7.975 1.052-8.694h-1.477l-1.58 3.582c-1.237 2.806-3.047 3.009-5.058 3.009h-6.038c-2.006 0-2.972-0.788-2.972-2.523v-9.158s4.455 0 5.895 0.118c1.122 0.079 1.801 0.4 2.166 1.967l0.48 2.086h1.735l-0.111-5.265 0.236-5.298h-1.712l-0.554 2.326c-0.348 1.531-0.591 1.809-2.159 1.969-2.050 0.209-5.926 0.172-5.926 0.172v-10.814h-0.062z"></path>
</symbol>
<symbol id="icon-eventbrite" viewBox="0 0 32 32">
<title>eventbrite</title>
<path d="M14.154 8.369c3.323-0.738 6.523 0.615 8.369 3.077l-14.4 3.323c0.492-3.077 2.831-5.662 6.031-6.4zM22.646 20.431c-1.108 1.6-2.831 2.831-4.8 3.2-3.323 0.738-6.523-0.615-8.369-3.2l14.4-3.2 2.338-0.492 4.554-0.985c0-0.985-0.123-1.969-0.369-2.831-1.846-8-9.723-12.8-17.723-10.954s-12.923 9.6-11.077 17.354 9.723 12.677 17.723 10.831c4.677-1.108 8.369-4.185 10.092-8.123 0.123-0.123-6.769-1.6-6.769-1.6z"></path>
</symbol>
<symbol id="icon-evernote" viewBox="0 0 32 32">
<title>evernote</title>
<path d="M10.698 7.932c0 0.294-0.025 0.784-0.315 1.102-0.316 0.295-0.802 0.319-1.093 0.319h-3.109c-0.898 0-1.434 0-1.797 0.049-0.196 0.025-0.438 0.123-0.56 0.172-0.049 0.023-0.049 0-0.025-0.025l7.093-7.275c0.025-0.025 0.049-0.025 0.025 0.025-0.049 0.122-0.145 0.367-0.17 0.562-0.049 0.367-0.049 0.906-0.049 1.812v3.258zM17.28 29.925c-0.825-0.539-1.263-1.249-1.433-1.69-0.167-0.398-0.265-0.861-0.267-1.347v-0.001c0.002-2.039 1.653-3.692 3.692-3.697h0c0.607 0 1.093 0.49 1.093 1.102 0 0.002 0 0.005 0 0.007 0 0.406-0.223 0.759-0.553 0.945l-0.005 0.003c-0.122 0.074-0.292 0.123-0.414 0.148-0.121 0.025-0.582 0.074-0.8 0.268-0.244 0.197-0.438 0.514-0.438 0.858 0 0.367 0.145 0.71 0.389 0.955 0.437 0.441 1.020 0.686 1.652 0.686 1.651-0.006 2.987-1.346 2.987-2.998 0-0.005 0-0.010-0-0.014v0.001c0-1.494-0.996-2.817-2.308-3.404-0.194-0.098-0.51-0.172-0.801-0.246-0.18-0.040-0.427-0.083-0.678-0.116l-0.050-0.005c-1.020-0.123-3.57-0.93-3.742-3.207 0 0-0.752 3.428-2.258 4.358-0.145 0.074-0.34 0.148-0.559 0.197-0.218 0.049-0.46 0.074-0.534 0.074-2.453 0.146-5.052-0.638-6.849-2.498 0 0-1.215-1.004-1.846-3.82-0.145-0.687-0.437-1.911-0.607-3.062-0.074-0.416-0.098-0.735-0.122-1.029 0-1.2 0.729-2.007 1.652-2.129h4.955c0.849 0 1.337-0.222 1.652-0.516 0.414-0.391 0.511-0.955 0.511-1.616v-5.167c0.119-0.907 0.923-1.666 2.112-1.666h0.583c0.242 0 0.534 0.025 0.801 0.049 0.194 0.025 0.364 0.074 0.656 0.148 1.482 0.367 1.797 1.886 1.797 1.886s2.794 0.49 4.203 0.735c1.335 0.245 4.64 0.465 5.27 3.82 1.482 7.984 0.583 15.723 0.511 15.723-1.045 7.543-7.263 7.175-7.263 7.175-0.030 0.001-0.066 0.001-0.102 0.001-1.080 0-2.081-0.339-2.902-0.918l0.016 0.011zM22.868 13.883c-0.802-0.074-1.482 0.246-1.726 0.858-0.049 0.123-0.097 0.27-0.073 0.342 0.025 0.074 0.074 0.098 0.122 0.123 0.292 0.148 0.777 0.22 1.482 0.294 0.704 0.074 1.19 0.123 1.505 0.074 0.049 0 0.098-0.025 0.146-0.098 0.049-0.074 0.025-0.222 0.025-0.343-0.074-0.661-0.681-1.151-1.482-1.249z"></path>
</symbol>
<symbol id="icon-facebook" viewBox="0 0 32 32">
<title>facebook</title>
<path d="M30.767 15.999c0-8.156-6.612-14.768-14.768-14.768s-14.768 6.612-14.768 14.768c0 7.371 5.401 13.481 12.461 14.589v-10.32h-3.75v-4.269h3.75v-3.254c0-3.701 2.205-5.746 5.578-5.746 1.616 0 3.306 0.288 3.306 0.288v3.634h-1.862c-1.835 0-2.407 1.138-2.407 2.306v2.77h4.096l-0.655 4.269h-3.441v10.32c7.060-1.108 12.461-7.217 12.461-14.589z"></path>
</symbol>
<symbol id="icon-feedly" viewBox="0 0 32 32">
<title>feedly</title>
<path d="M10.334 28.224l-8.34-8.399c-1.015-1.014-1.015-3.211 0-4.172l11.95-12.002c0.961-0.96 3.103-0.96 4.058 0l12.007 12.004c1.017 1.015 1.017 3.214 0 4.174l-8.343 8.399c-0.506 0.505-1.296 0.844-2.086 0.844h-7.271c-0.734-0.001-1.465-0.34-1.974-0.847zM17.945 24.955c0.169-0.17 0.169-0.508 0-0.677l-1.634-1.634c-0.17-0.185-0.507-0.185-0.676 0l-1.636 1.623c-0.17 0.165-0.17 0.498 0 0.665l1.297 1.237h1.353l1.311-1.255-0.015 0.042zM17.945 18.022c0.113-0.111 0.113-0.394 0-0.507l-1.748-1.734c-0.111-0.112-0.394-0.112-0.507 0l-5.072 5.076c-0.171 0.185-0.171 0.572 0 0.74l1.18 1.182h1.356l4.791-4.745v-0.011zM17.945 11.146c0.113-0.112 0.169-0.45 0-0.564l-1.692-1.691c-0.111-0.128-0.449-0.128-0.618 0l-8.51 8.511c-0.116 0.111-0.172 0.442-0.060 0.553l1.354 1.292h1.296l8.23-8.101z"></path>
</symbol>
<symbol id="icon-github" viewBox="0 0 32 32">
<title>github</title>
<path d="M16 1.596c-8.16 0-14.769 6.613-14.769 14.769 0 6.527 4.231 12.062 10.098 14.012 0.738 0.139 1.009-0.318 1.009-0.71 0-0.351-0.012-1.28-0.018-2.511-4.108 0.891-4.975-1.982-4.975-1.982-0.672-1.705-1.643-2.16-1.643-2.16-1.338-0.916 0.103-0.897 0.103-0.897 1.483 0.103 2.262 1.521 2.262 1.521 1.317 2.258 3.457 1.606 4.302 1.228 0.133-0.955 0.513-1.606 0.935-1.975-3.28-0.369-6.727-1.639-6.727-7.298 0-1.612 0.572-2.929 1.52-3.963-0.166-0.373-0.665-1.874 0.129-3.909 0 0 1.237-0.396 4.062 1.514 1.182-0.329 2.437-0.491 3.692-0.498 1.255 0.007 2.511 0.17 3.692 0.498 2.806-1.91 4.043-1.514 4.043-1.514 0.794 2.034 0.295 3.536 0.148 3.909 0.942 1.034 1.514 2.351 1.514 3.963 0 5.674-3.452 6.923-6.738 7.286 0.517 0.443 0.997 1.349 0.997 2.732 0 1.977-0.018 3.564-0.018 4.044 0 0.388 0.258 0.849 1.015 0.702 5.909-1.937 10.137-7.476 10.137-13.993 0-8.156-6.613-14.769-14.769-14.769z"></path>
</symbol>
<symbol id="icon-gitlab" viewBox="0 0 32 32">
<title>gitlab</title>
<path d="M30.714 17.953l-1.652-5.089-3.279-10.079c-0.166-0.521-0.898-0.521-1.067 0l-3.279 10.076h-10.875l-3.278-10.076c-0.167-0.521-0.903-0.521-1.070-0.004l-3.279 10.079-1.652 5.093c-0.149 0.462 0.017 0.971 0.407 1.259l14.308 10.393 14.308-10.391c0.391-0.289 0.558-0.796 0.406-1.26z"></path>
</symbol>
<symbol id="icon-goodreads" viewBox="0 0 32 32">
<title>goodreads</title>
<path d="M25.262 20.895v-19.061h-2.534v3.577h-0.079c-0.26-0.56-0.592-1.097-1.036-1.609-0.443-0.507-0.944-0.956-1.516-1.346-0.574-0.386-1.184-0.69-1.87-0.906-0.681-0.208-1.403-0.319-2.18-0.319-1.489 0-2.831 0.277-3.995 0.825-1.166 0.55-2.145 1.301-2.935 2.252s-1.394 2.063-1.809 3.337c-0.414 1.276-0.623 2.62-0.623 4.041 0 1.476 0.174 2.863 0.523 4.162 0.352 1.301 0.907 2.432 1.684 3.399 0.777 0.96 1.738 1.719 2.923 2.256 1.183 0.537 2.608 0.814 4.272 0.814 1.536 0 2.868-0.388 4.015-1.164s2.016-1.813 2.608-3.108h0.075v2.811c0 2.516-0.518 4.439-1.556 5.791-1.034 1.33-2.737 2.016-5.103 2.016-0.704 0-1.388-0.075-2.054-0.223-0.667-0.148-1.275-0.388-1.83-0.702-0.538-0.334-1.018-0.74-1.407-1.278-0.389-0.535-0.647-1.183-0.778-1.961h-2.593c0.082 1.092 0.388 2.036 0.907 2.831 0.522 0.795 1.183 1.442 1.972 1.961 0.789 0.5 1.682 0.869 2.673 1.11 0.998 0.239 2.017 0.369 3.070 0.369 1.702 0 3.127-0.24 4.29-0.683 1.166-0.463 2.11-1.11 2.832-1.979 0.74-0.871 1.257-1.906 1.591-3.146 0.332-1.239 0.517-2.626 0.517-4.144l-0.054 0.076zM16.050 20.209c-1.175 0-2.196-0.233-3.051-0.703-0.858-0.468-1.572-1.086-2.132-1.85-0.575-0.764-0.981-1.639-1.258-2.633s-0.409-2.010-0.409-3.057c0-1.072 0.129-2.123 0.37-3.154 0.258-1.034 0.665-1.953 1.221-2.757 0.555-0.802 1.276-1.455 2.127-1.95s1.887-0.745 3.089-0.745 2.219 0.257 3.071 0.764c0.832 0.511 1.535 1.18 2.071 2.011 0.537 0.833 0.924 1.759 1.166 2.775 0.24 1.017 0.351 2.038 0.351 3.055 0 1.049-0.148 2.065-0.425 3.057-0.278 0.993-0.704 1.868-1.278 2.633-0.572 0.764-1.257 1.382-2.090 1.85-0.832 0.47-1.794 0.703-2.903 0.703h0.079z"></path>
</symbol>
<symbol id="icon-instagram" viewBox="0 0 32 32">
<title>instagram</title>
<path d="M16 1.231c-4.012 0-4.513 0.018-6.089 0.089-1.573 0.074-2.644 0.321-3.585 0.687-0.971 0.377-1.796 0.882-2.617 1.703s-1.328 1.644-1.703 2.617c-0.366 0.942-0.614 2.012-0.687 3.585-0.074 1.575-0.089 2.076-0.089 6.089s0.018 4.513 0.089 6.089c0.074 1.572 0.321 2.644 0.687 3.585 0.377 0.97 0.882 1.796 1.703 2.617 0.821 0.82 1.644 1.328 2.617 1.703 0.943 0.364 2.014 0.614 3.585 0.687 1.575 0.074 2.076 0.089 6.089 0.089s4.513-0.018 6.089-0.089c1.572-0.074 2.644-0.322 3.585-0.687 0.97-0.377 1.796-0.884 2.617-1.703 0.82-0.821 1.328-1.643 1.703-2.617 0.364-0.942 0.614-2.014 0.687-3.585 0.074-1.575 0.089-2.076 0.089-6.089s-0.018-4.513-0.089-6.089c-0.074-1.572-0.322-2.645-0.687-3.585-0.377-0.971-0.884-1.796-1.703-2.617-0.821-0.821-1.643-1.328-2.617-1.703-0.942-0.366-2.014-0.614-3.585-0.687-1.575-0.074-2.076-0.089-6.089-0.089zM16 3.889c3.942 0 4.412 0.020 5.969 0.087 1.44 0.068 2.222 0.306 2.741 0.511 0.692 0.267 1.182 0.587 1.701 1.103 0.516 0.517 0.836 1.008 1.103 1.7 0.202 0.519 0.443 1.301 0.508 2.741 0.070 1.558 0.086 2.026 0.086 5.969s-0.018 4.412-0.091 5.969c-0.075 1.44-0.315 2.222-0.518 2.741-0.276 0.692-0.59 1.182-1.106 1.701-0.516 0.516-1.014 0.836-1.698 1.103-0.517 0.202-1.311 0.443-2.751 0.508-1.568 0.070-2.030 0.086-5.98 0.086-3.952 0-4.414-0.018-5.98-0.091-1.441-0.075-2.235-0.315-2.752-0.518-0.7-0.276-1.182-0.59-1.697-1.106-0.518-0.516-0.849-1.014-1.108-1.698-0.203-0.517-0.442-1.311-0.517-2.751-0.055-1.551-0.075-2.030-0.075-5.962 0-3.934 0.020-4.414 0.075-5.983 0.075-1.44 0.314-2.233 0.517-2.75 0.258-0.702 0.59-1.182 1.108-1.7 0.516-0.516 0.997-0.848 1.697-1.105 0.517-0.204 1.294-0.444 2.734-0.518 1.569-0.055 2.031-0.074 5.98-0.074l0.055 0.037zM16 8.416c-4.191 0-7.584 3.397-7.584 7.584 0 4.191 3.397 7.584 7.584 7.584 4.191 0 7.584-3.397 7.584-7.584 0-4.191-3.397-7.584-7.584-7.584zM16 20.923c-2.72 0-4.923-2.203-4.923-4.923s2.203-4.923 4.923-4.923 4.923 2.203 4.923 4.923-2.203 4.923-4.923 4.923zM25.657 8.117c0 0.978-0.795 1.772-1.772 1.772-0.978 0-1.772-0.795-1.772-1.772s0.795-1.771 1.772-1.771c0.976-0.001 1.772 0.794 1.772 1.771z"></path>
</symbol>
<symbol id="icon-kickstarter" viewBox="0 0 32 32">
<title>kickstarter</title>
<path d="M13.051 11.298l5.415-7.852c1.026-1.477 2.346-2.215 3.972-2.215 1.319 0 2.464 0.469 3.433 1.408 0.964 0.942 1.447 2.062 1.447 3.37 0 0.965-0.255 1.82-0.768 2.559l-4.882 7.1 5.973 7.573c0.596 0.753 0.895 1.637 0.895 2.646 0 1.337-0.469 2.484-1.409 3.444-0.938 0.959-2.075 1.439-3.41 1.439-1.463 0-2.581-0.476-3.349-1.428l-7.314-9.129v5.033c0 1.438-0.249 2.553-0.747 3.35-0.907 1.449-2.219 2.174-3.954 2.174-1.578 0-2.801-0.537-3.666-1.599-0.812-0.983-1.218-2.284-1.218-3.904v-18.663c0-1.532 0.414-2.799 1.236-3.794 0.859-1.051 2.053-1.578 3.577-1.578 1.451 0 2.658 0.527 3.626 1.578 0.539 0.585 0.88 1.173 1.023 1.772 0.086 0.369 0.129 1.056 0.129 2.068v4.65h-0.005z"></path>
</symbol>
<symbol id="icon-last-dot-fm" viewBox="0 0 32 32">
<title>last-dot-fm</title>
<path d="M14.276 22.414l-1.084-2.945s-1.764 1.964-4.405 1.964c-2.338 0-3.999-2.033-3.999-5.287 0-4.166 2.102-5.657 4.17-5.657 2.976 0 3.919 1.93 4.732 4.404l1.072 3.386c1.072 3.289 3.105 5.93 8.966 5.93 4.197 0 7.042-1.286 7.042-4.678 0-2.741-1.57-4.164-4.474-4.843l-2.162-0.473c-1.498-0.337-1.941-0.949-1.941-1.966 0-1.152 0.906-1.83 2.402-1.83 1.628 0 2.496 0.609 2.642 2.066l3.383-0.406c-0.277-3.051-2.384-4.3-5.84-4.3-3.051 0-6.027 1.152-6.027 4.842 0 2.305 1.11 3.764 3.92 4.437l2.292 0.545c1.719 0.406 2.293 1.127 2.293 2.108 0 1.257-1.221 1.774-3.531 1.774-3.42 0-4.844-1.793-5.658-4.27l-1.109-3.385c-1.423-4.399-3.697-6.026-8.208-6.026-4.88-0.017-7.522 3.124-7.522 8.485 0 5.143 2.642 7.932 7.388 7.932 3.825 0 5.657-1.793 5.657-1.793v-0.015z"></path>
</symbol>
<symbol id="icon-line" viewBox="0 0 32 32">
<title>line</title>
<path d="M25.065 13.37c0.43 0 0.775 0.351 0.775 0.777 0 0.425-0.346 0.775-0.775 0.775h-2.16v1.385h2.16c0.43 0 0.775 0.348 0.775 0.775 0 0.423-0.346 0.774-0.775 0.774h-2.937c-0.425 0-0.772-0.351-0.772-0.774v-5.872c0-0.425 0.347-0.775 0.775-0.775h2.937c0.426 0 0.772 0.351 0.772 0.775 0 0.43-0.346 0.775-0.775 0.775h-2.16v1.385h2.16zM20.32 17.082c0 0.332-0.214 0.628-0.532 0.734-0.079 0.026-0.164 0.038-0.245 0.038-0.26 0-0.481-0.111-0.628-0.308l-3.007-4.082v3.618c0 0.423-0.343 0.774-0.777 0.774-0.426 0-0.77-0.351-0.77-0.774v-5.872c0-0.332 0.213-0.628 0.529-0.732 0.074-0.028 0.167-0.041 0.239-0.041 0.24 0 0.462 0.128 0.609 0.313l3.030 4.098v-3.638c0-0.425 0.347-0.775 0.775-0.775 0.425 0 0.775 0.351 0.775 0.775v5.872zM13.254 17.082c0 0.423-0.347 0.774-0.777 0.774-0.425 0-0.772-0.351-0.772-0.774v-5.872c0-0.425 0.347-0.775 0.775-0.775 0.426 0 0.773 0.351 0.773 0.775v5.872zM10.219 17.856h-2.937c-0.425 0-0.775-0.351-0.775-0.774v-5.872c0-0.425 0.351-0.775 0.775-0.775 0.428 0 0.775 0.351 0.775 0.775v5.097h2.161c0.428 0 0.774 0.348 0.774 0.775 0 0.423-0.347 0.774-0.774 0.774zM30.769 13.925c0-6.61-6.628-11.99-14.769-11.99s-14.769 5.38-14.769 11.99c0 5.921 5.255 10.882 12.351 11.825 0.481 0.101 1.136 0.318 1.302 0.726 0.148 0.37 0.097 0.943 0.047 1.329l-0.202 1.255c-0.055 0.37-0.295 1.46 1.291 0.794 1.589-0.663 8.512-5.019 11.614-8.585 2.122-2.325 3.136-4.706 3.136-7.345z"></path>
</symbol>
<symbol id="icon-linkedin" viewBox="0 0 32 32">
<title>linkedin</title>
<path d="M26.396 26.402h-4.374v-6.854c0-1.634-0.033-3.738-2.279-3.738-2.281 0-2.629 1.778-2.629 3.617v6.975h-4.374v-14.095h4.202v1.921h0.057c0.587-1.108 2.015-2.277 4.148-2.277 4.432 0 5.252 2.917 5.252 6.714v7.737zM7.799 10.379c-1.408 0-2.539-1.14-2.539-2.542 0-1.401 1.132-2.539 2.539-2.539 1.403 0 2.54 1.138 2.54 2.539 0 1.402-1.138 2.542-2.54 2.542zM9.993 26.402h-4.386v-14.095h4.386v14.095zM28.585 1.231h-25.174c-1.205 0-2.18 0.953-2.18 2.128v25.282c0 1.177 0.975 2.128 2.18 2.128h25.17c1.204 0 2.188-0.951 2.188-2.128v-25.282c0-1.175-0.985-2.128-2.188-2.128h0.004z"></path>
</symbol>
<symbol id="icon-mailchimp" viewBox="0 0 32 32">
<title>mailchimp</title>
<path d="M23.36 15.189c0.203-0.026 0.409-0.026 0.612 0 0.11-0.252 0.128-0.687 0.030-1.159-0.148-0.703-0.345-1.129-0.754-1.062s-0.426 0.576-0.278 1.279c0.082 0.395 0.229 0.734 0.393 0.943zM19.84 15.745c0.294 0.129 0.474 0.214 0.544 0.14 0.046-0.047 0.032-0.135-0.037-0.25-0.145-0.238-0.443-0.478-0.759-0.612-0.234-0.1-0.506-0.158-0.791-0.158-0.459 0-0.883 0.15-1.225 0.403l0.006-0.004c-0.197 0.144-0.382 0.345-0.357 0.465 0.010 0.039 0.038 0.069 0.107 0.079 0.162 0.018 0.727-0.267 1.378-0.308 0.46-0.028 0.842 0.116 1.135 0.245zM19.249 16.082c-0.382 0.062-0.592 0.187-0.727 0.304-0.116 0.101-0.187 0.213-0.187 0.292l0.030 0.070 0.063 0.025c0.086 0 0.281-0.079 0.281-0.079 0.255-0.099 0.55-0.157 0.859-0.157 0.131 0 0.26 0.010 0.386 0.030l-0.014-0.002c0.191 0.022 0.283 0.034 0.324-0.032 0.012-0.018 0.028-0.060-0.010-0.123-0.090-0.145-0.476-0.39-1.002-0.327zM22.172 17.321c0.258 0.128 0.544 0.078 0.638-0.111 0.094-0.191-0.042-0.448-0.302-0.575-0.258-0.128-0.544-0.078-0.638 0.111-0.094 0.191 0.042 0.448 0.302 0.575zM23.84 15.861c-0.21-0.004-0.386 0.228-0.39 0.518-0.005 0.289 0.161 0.527 0.372 0.53s0.386-0.228 0.391-0.517c0.004-0.289-0.162-0.527-0.373-0.532zM9.681 21.083c-0.052-0.065-0.138-0.046-0.222-0.026-0.059 0.016-0.127 0.026-0.196 0.027h-0.001c-0.003 0-0.006 0-0.009 0-0.144 0-0.272-0.071-0.349-0.181l-0.001-0.001c-0.096-0.148-0.090-0.368 0.015-0.62l0.049-0.113c0.17-0.379 0.453-1.015 0.135-1.621-0.239-0.455-0.629-0.741-1.098-0.8-0.054-0.007-0.116-0.011-0.179-0.011-0.407 0-0.773 0.172-1.030 0.448l-0.001 0.001c-0.466 0.514-0.539 1.216-0.448 1.465 0.033 0.090 0.085 0.116 0.122 0.121 0.080 0.011 0.197-0.047 0.271-0.246l0.021-0.064c0.032-0.105 0.094-0.299 0.193-0.455 0.153-0.233 0.414-0.384 0.709-0.384 0.172 0 0.333 0.052 0.467 0.14l-0.003-0.002c0.327 0.215 0.453 0.615 0.314 0.998-0.073 0.198-0.19 0.576-0.164 0.886 0.053 0.63 0.439 0.882 0.785 0.911 0.337 0.012 0.574-0.178 0.633-0.318 0.037-0.081 0.006-0.132-0.012-0.154v0.001zM29.158 19.931c-0.012-0.046-0.096-0.352-0.212-0.721l-0.234-0.628c0.462-0.693 0.469-1.312 0.409-1.662-0.066-0.434-0.246-0.805-0.61-1.186-0.363-0.384-1.108-0.775-2.154-1.068l-0.548-0.153c-0.002-0.022-0.028-1.296-0.053-1.842-0.016-0.394-0.050-1.012-0.241-1.618-0.228-0.823-0.624-1.542-1.12-2.002 1.366-1.418 2.219-2.981 2.217-4.321-0.004-2.578-3.164-3.36-7.060-1.743l-0.825 0.351c-0.385-0.38-0.878-0.864-1.372-1.347l-0.142-0.138c-4.443-3.882-18.327 11.579-13.889 15.335l0.971 0.822c-0.191 0.496-0.301 1.070-0.301 1.67 0 0.189 0.011 0.376 0.032 0.559l-0.002-0.022c0.105 1.034 0.636 2.023 1.499 2.789 0.818 0.726 1.895 1.188 2.94 1.186 1.727 3.988 5.674 6.434 10.302 6.572 4.965 0.148 9.132-2.186 10.88-6.378 0.114-0.295 0.598-1.621 0.598-2.79 0-1.177-0.663-1.664-1.086-1.664zM8.847 23.070c-0.121 0.022-0.26 0.034-0.401 0.034-0.021 0-0.041-0-0.062-0.001l0.003 0c-1.499-0.041-3.119-1.392-3.28-2.997-0.178-1.772 0.726-3.136 2.326-3.458 0.161-0.034 0.345-0.053 0.534-0.053 0.049 0 0.097 0.001 0.146 0.004l-0.007-0c0.897 0.049 2.219 0.738 2.521 2.697 0.267 1.733-0.158 3.499-1.78 3.776zM7.173 15.586c-0.997 0.193-1.876 0.759-2.412 1.541-0.321-0.268-0.919-0.788-1.025-0.99-0.858-1.631 0.935-4.802 2.188-6.593 3.098-4.426 7.945-7.776 10.191-7.168 0.364 0.103 1.573 1.506 1.573 1.506s-2.244 1.247-4.325 2.986c-2.804 2.162-4.922 5.306-6.191 8.718zM22.911 22.407c0.031-0.014 0.052-0.045 0.052-0.081 0-0.002-0-0.005-0-0.007l0 0c-0.004-0.042-0.039-0.074-0.082-0.074-0.003 0-0.006 0-0.009 0.001l0-0s-2.348 0.348-4.567-0.466c0.241-0.786 0.884-0.502 1.856-0.423 0.24 0.015 0.52 0.024 0.802 0.024 1.31 0 2.576-0.186 3.774-0.532l-0.096 0.024c1.004-0.289 2.324-0.859 3.35-1.669 0.345 0.761 0.468 1.598 0.468 1.598s0.267-0.048 0.491 0.090c0.21 0.13 0.366 0.401 0.26 1.102-0.215 1.308-0.77 2.37-1.703 3.348-0.573 0.62-1.251 1.133-2.006 1.513l-0.040 0.018c-0.374 0.203-0.816 0.394-1.274 0.548l-0.061 0.018c-3.518 1.151-7.119-0.114-8.279-2.831-0.084-0.178-0.163-0.391-0.226-0.611l-0.008-0.031c-0.494-1.791-0.074-3.938 1.239-5.291 0.080-0.086 0.162-0.188 0.162-0.315 0-0.107-0.068-0.219-0.126-0.299-0.459-0.667-2.050-1.804-1.73-4.005 0.229-1.582 1.61-2.694 2.896-2.628l0.326 0.018c0.558 0.033 1.044 0.105 1.504 0.124 0.768 0.033 1.458-0.079 2.277-0.762 0.276-0.23 0.497-0.431 0.871-0.494 0.039-0.006 0.137-0.042 0.332-0.032 0.21 0.008 0.403 0.074 0.565 0.182l-0.004-0.003c0.656 0.437 0.748 1.495 0.783 2.271 0.020 0.443 0.073 1.511 0.091 1.819 0.042 0.702 0.225 0.8 0.598 0.923 0.209 0.070 0.405 0.122 0.692 0.202 0.868 0.245 1.382 0.492 1.707 0.811 0.194 0.198 0.283 0.41 0.311 0.612 0.103 0.748-0.578 1.673-2.385 2.512-1.975 0.918-4.369 1.151-6.025 0.966l-0.58-0.065c-1.324-0.178-2.079 1.535-1.285 2.709 0.512 0.757 1.908 1.249 3.302 1.249 3.2 0 5.659-1.367 6.574-2.55l0.074-0.105c0.044-0.068 0.007-0.105-0.049-0.066-0.747 0.512-4.066 2.546-7.618 1.934 0 0-0.431-0.070-0.825-0.224-0.313-0.122-0.967-0.423-1.046-1.097 2.865 0.887 4.668 0.048 4.668 0.048zM18.372 21.871l0.001 0.001v-0.002zM12.89 9.526c1.102-1.275 2.457-2.383 3.67-3.004 0.042-0.021 0.086 0.025 0.064 0.065-0.097 0.175-0.283 0.55-0.341 0.833-0.001 0.003-0.001 0.007-0.001 0.011 0 0.027 0.022 0.049 0.049 0.049 0.010 0 0.019-0.003 0.027-0.008l-0 0c0.756-0.516 2.069-1.068 3.222-1.138 0.049-0.004 0.074 0.060 0.033 0.091-0.19 0.146-0.361 0.318-0.506 0.508-0.006 0.008-0.010 0.018-0.010 0.030 0 0.027 0.021 0.049 0.048 0.049h0c0.809 0.006 1.95 0.289 2.693 0.708 0.049 0.028 0.015 0.126-0.042 0.113-1.125-0.258-2.966-0.455-4.879 0.012-1.707 0.417-3.010 1.061-3.961 1.754-0.049 0.036-0.106-0.028-0.068-0.074z"></path>
</symbol>
<symbol id="icon-mastercard" viewBox="0 0 32 32">
<title>mastercard</title>
<path d="M15.191 23.423c0.071 0.060 0.148 0.121 0.223 0.18-1.449 0.964-3.188 1.524-5.055 1.524-5.042 0.001-9.129-4.085-9.129-9.126 0-5.040 4.086-9.127 9.127-9.127 1.868 0 3.607 0.561 5.052 1.524-0.074 0.063-0.148 0.121-0.203 0.185-2.161 1.867-3.398 4.574-3.398 7.419 0 2.844 1.232 5.551 3.382 7.423zM21.642 6.873c-1.871 0-3.607 0.561-5.052 1.524 0.074 0.063 0.148 0.121 0.203 0.185 2.161 1.867 3.398 4.574 3.398 7.419 0 2.843-1.232 5.547-3.382 7.423-0.071 0.060-0.148 0.121-0.223 0.18 1.449 0.964 3.185 1.524 5.055 1.524 5.042 0.001 9.129-4.085 9.129-9.126 0-5.039-4.086-9.127-9.127-9.127zM16 8.83c-0.118 0.092-0.233 0.185-0.345 0.284-1.925 1.673-3.14 4.135-3.14 6.886 0 2.752 1.215 5.214 3.14 6.886 0.111 0.098 0.228 0.194 0.345 0.286 0.118-0.091 0.233-0.187 0.345-0.286 1.924-1.673 3.14-4.134 3.14-6.886 0-2.751-1.215-5.214-3.14-6.886-0.111-0.098-0.226-0.192-0.345-0.284z"></path>
</symbol>
<symbol id="icon-medium" viewBox="0 0 32 32">
<title>medium</title>
<path d="M1.231 1.231v29.538h29.538v-29.538h-29.538zM25.77 8.229l-1.584 1.519c-0.111 0.085-0.183 0.219-0.183 0.368 0 0.027 0.002 0.054 0.007 0.080l-0-0.003v11.159c-0.004 0.023-0.006 0.049-0.006 0.076 0 0.15 0.071 0.283 0.181 0.367l0.001 0.001 1.547 1.519v0.334h-7.781v-0.332l1.602-1.557c0.158-0.158 0.158-0.203 0.158-0.443v-9.022l-4.455 11.317h-0.603l-5.189-11.317v7.585c-0.006 0.042-0.009 0.091-0.009 0.141 0 0.284 0.113 0.541 0.296 0.73l-0-0 2.085 2.528v0.334h-5.91v-0.332l2.086-2.529c0.175-0.181 0.283-0.428 0.283-0.7 0-0.060-0.005-0.119-0.015-0.176l0.001 0.006v-8.77c0.003-0.023 0.004-0.051 0.004-0.078 0-0.226-0.098-0.429-0.253-0.57l-0.001-0.001-1.854-2.233v-0.332h5.753l4.447 9.751 3.909-9.753h5.484v0.334z"></path>
</symbol>
<symbol id="icon-meetup" viewBox="0 0 32 32">
<title>meetup</title>
<path d="M30.742 26.139c-0.374-2.377-4.768-0.546-5.041-3.15-0.385-3.69 5.108-11.642 4.673-14.735-0.385-2.775-2.266-3.36-3.895-3.392-1.58-0.025-1.998 0.224-2.533 0.535-0.311 0.18-0.753 0.535-1.369-0.050-0.411-0.391-0.686-0.66-1.114-1.008-0.224-0.175-0.574-0.399-1.163-0.486-0.586-0.087-1.351 0-1.836 0.206-0.486 0.212-0.864 0.574-1.263 0.922-0.398 0.348-1.412 1.474-2.352 1.057-0.412-0.178-1.794-0.869-2.796-1.298-1.924-0.833-4.704 0.517-5.706 2.297-1.493 2.645-4.431 13.050-4.879 14.418-0.996 3.079 1.27 5.588 4.319 5.445 1.295-0.063 2.154-0.529 2.969-2.016 0.473-0.853 4.897-12.415 5.228-12.976 0.242-0.398 1.039-0.927 1.711-0.585 0.678 0.348 0.815 1.070 0.715 1.749-0.167 1.102-3.285 8.159-3.41 8.954-0.199 1.358 0.442 2.11 1.855 2.183 0.965 0.050 1.929-0.292 2.688-1.735 0.43-0.802 5.353-10.666 5.787-11.326 0.48-0.721 0.865-0.959 1.358-0.933 0.38 0.018 0.983 0.118 0.834 1.25-0.15 1.114-4.114 8.345-4.524 10.118-0.561 2.372 0.741 4.768 2.881 5.819 1.369 0.672 7.348 1.817 6.864-1.264z"></path>
</symbol>
<symbol id="icon-messenger" viewBox="0 0 32 32">
<title>messenger</title>
<path d="M1.231 15.557c0-8.234 6.449-14.326 14.769-14.326s14.769 6.092 14.769 14.326-6.449 14.326-14.769 14.326c-1.489 0-2.929-0.197-4.271-0.566-0.092-0.026-0.198-0.041-0.307-0.041-0.174 0-0.339 0.038-0.488 0.105l0.007-0.003-2.942 1.292c-0.141 0.064-0.306 0.102-0.48 0.102-0.641 0-1.163-0.51-1.181-1.147l-0-0.002-0.086-2.634c-0.014-0.333-0.163-0.628-0.393-0.836l-0.001-0.001c-2.848-2.576-4.629-6.285-4.629-10.409 0-0.066 0-0.132 0.001-0.198l-0 0.010zM11.471 12.862l-4.332 6.892c-0.431 0.652 0.394 1.403 1.009 0.923l4.665-3.532c0.32-0.246 0.738-0.246 1.071 0l3.446 2.585c1.034 0.775 2.511 0.492 3.2-0.591l4.332-6.892c0.431-0.652-0.394-1.391-1.009-0.923l-4.665 3.532c-0.308 0.246-0.738 0.246-1.058 0l-3.446-2.585c-0.367-0.279-0.831-0.448-1.335-0.448-0.787 0-1.479 0.411-1.872 1.029l-0.005 0.009z"></path>
</symbol>
<symbol id="icon-paypal" viewBox="0 0 32 32">
<title>paypal</title>
<path d="M9.733 30.769h-3.82c-0.817 0-1.337-0.651-1.152-1.452l0.183-0.83h2.549c0.82 0 1.644-0.656 1.824-1.455l1.31-5.652c0.185-0.798 1.004-1.452 1.822-1.452h1.087c4.663 0 8.288-0.959 10.88-2.88s3.889-4.431 3.889-7.551c0-1.385-0.24-2.529-0.724-3.433 0-0.020-0.020-0.038-0.020-0.057l0.166 0.092c0.923 0.572 1.625 1.31 2.106 2.233 0.497 0.923 0.736 2.068 0.736 3.435 0 3.12-1.291 5.63-3.894 7.551-2.585 1.902-6.222 2.86-10.873 2.86h-1.108c-0.812 0-1.642 0.646-1.826 1.46l-1.311 5.668c-0.183 0.794-0.997 1.44-1.809 1.44l-0.015 0.022zM6.438 27.452h-3.822c-0.816 0-1.334-0.651-1.152-1.452l5.382-23.314c0.186-0.804 1.003-1.455 1.823-1.455h7.957c1.717 0 3.211 0.121 4.49 0.356 1.274 0.233 2.363 0.639 3.303 1.218 0.906 0.572 1.627 1.319 2.089 2.238 0.479 0.921 0.719 2.068 0.719 3.442 0 3.12-1.294 5.63-3.894 7.531-2.585 1.921-6.223 2.863-10.875 2.863h-1.087c-0.812 0-1.634 0.645-1.819 1.439l-1.306 5.648c-0.183 0.795-1.006 1.442-1.828 1.442l0.020 0.044zM15.602 6.075h-1.248c-0.82 0-1.639 0.651-1.822 1.45l-1.145 4.948c-0.185 0.798 0.332 1.451 1.145 1.451h0.943c2.048 0 3.655-0.422 4.8-1.257 1.143-0.844 1.717-2.036 1.717-3.584 0-1.022-0.37-1.778-1.108-2.265-0.738-0.497-1.846-0.745-3.306-0.745l0.023 0.001z"></path>
</symbol>
<symbol id="icon-periscope" viewBox="0 0 32 32">
<title>periscope</title>
<path d="M16.166 30.769c2.308 0 11.463-10.386 11.463-17.349 0-6.663-5.205-12.19-11.463-12.19-6.591 0-11.796 5.524-11.796 12.19 0 6.961 9.156 17.349 11.796 17.349zM14.325 5.964c0.597-0.148 1.225-0.228 1.876-0.228 3.692 0 6.869 3.14 6.869 7.218 0 3.674-3.177 6.812-6.887 6.812-4.117 0-7.292-3.138-7.292-6.812 0-1.718 0.554-3.249 1.513-4.468v0.037c0 1.532 1.238 2.75 2.769 2.75 1.534 0.001 2.828-1.255 2.828-2.786 0-1.131-0.689-2.102-1.673-2.527l-0.002 0.004z"></path>
</symbol>
<symbol id="icon-pinterest" viewBox="0 0 32 32">
<title>pinterest</title>
<path d="M16.021 1.231c-8.149 0-14.754 6.606-14.754 14.753 0 6.251 3.887 11.59 9.376 13.738-0.129-1.168-0.245-2.958 0.050-4.233 0.27-1.153 1.73-7.332 1.73-7.332s-0.442-0.886-0.442-2.192c0-2.047 1.19-3.583 2.668-3.583 1.26 0 1.868 0.946 1.868 2.078 0 1.266-0.804 3.159-1.221 4.913-0.351 1.468 0.738 2.665 2.185 2.665 2.619 0 4.638-2.763 4.638-6.753 0-3.521-2.539-5.993-6.164-5.993-4.197 0-6.657 3.153-6.657 6.399 0 1.271 0.485 2.638 1.094 3.374 0.122 0.148 0.138 0.277 0.105 0.425-0.111 0.462-0.361 1.476-0.411 1.678-0.065 0.277-0.212 0.334-0.494 0.203-1.84-0.849-2.994-3.542-2.994-5.718 0-4.647 3.382-8.926 9.748-8.926 5.118 0 9.098 3.652 9.098 8.521 0 5.089-3.209 9.184-7.671 9.184-1.494 0-2.897-0.774-3.394-1.697l-0.922 3.505c-0.331 1.286-1.236 2.895-1.844 3.872 1.382 0.425 2.838 0.658 4.369 0.658 8.132 0 14.751-6.603 14.751-14.753 0-8.151-6.619-14.753-14.751-14.753l0.039-0.032z"></path>
</symbol>
<symbol id="icon-podcasts" viewBox="0 0 32 32">
<title>podcasts</title>
<path d="M15.914 30.769s3.241 0 3.241-9.593c0-1.786-1.452-3.241-3.241-3.241s-3.242 1.455-3.242 3.241c0 9.593 3.242 9.593 3.242 9.593zM19.889 27.5c0.142-0.55 0.252-1.103 0.338-1.663l0.065-0.443c0.142-0.062 0.283-0.121 0.426-0.185 2.25-1.019 4.144-2.761 5.351-4.914 0.55-0.988 0.956-2.055 1.198-3.166 0.279-1.241 0.351-2.534 0.204-3.801-0.129-1.185-0.444-2.343-0.948-3.43-0.572-1.279-1.367-2.444-2.368-3.426-1.019-1.018-2.224-1.852-3.538-2.427-1.351-0.61-2.834-0.926-4.332-0.962-1.502-0.037-3.001 0.204-4.409 0.742-1.351 0.516-2.592 1.276-3.666 2.257-1.018 0.926-1.888 2.055-2.518 3.296-0.538 1.056-0.906 2.186-1.11 3.351-0.204 1.205-0.204 2.444-0.020 3.668 0.166 1.073 0.481 2.129 0.945 3.13 1.093 2.315 2.945 4.239 5.241 5.408 0.278 0.128 0.555 0.258 0.852 0.386 0.018 0.149 0.057 0.315 0.074 0.482 0.092 0.539 0.204 1.094 0.334 1.631-0.5-0.167-1.001-0.353-1.482-0.576-2.649-1.201-4.889-3.276-6.278-5.851-0.63-1.166-1.074-2.406-1.351-3.705-0.316-1.425-0.372-2.926-0.185-4.389 0.185-1.369 0.574-2.721 1.148-3.963 0.684-1.462 1.648-2.814 2.795-3.943 1.127-1.127 2.535-2.073 4.074-2.721 1.604-0.673 3.327-1.034 5.060-1.055 1.738-0.018 3.476 0.295 5.094 0.933 1.558 0.613 2.996 1.524 4.222 2.666 1.188 1.102 2.166 2.415 2.887 3.863 0.61 1.222 1.036 2.555 1.241 3.908 0.222 1.408 0.222 2.852-0.020 4.241-0.204 1.296-0.63 2.574-1.205 3.758-1.296 2.612-3.445 4.761-6.055 6.058-0.649 0.315-1.334 0.592-2.037 0.814l-0.026 0.028zM20.529 22.214l0.012-0.578c0-0.389 0-0.778-0.057-1.161-0.018-0.149-0.055-0.278-0.092-0.426 0.686-0.555 1.259-1.259 1.685-2.055 0.315-0.592 0.555-1.241 0.686-1.909 0.149-0.741 0.185-1.518 0.075-2.295-0.091-0.686-0.279-1.351-0.555-1.982-0.351-0.758-0.833-1.462-1.425-2.055-0.612-0.592-1.297-1.073-2.075-1.426-0.852-0.369-1.778-0.591-2.704-0.61-0.926-0.018-1.871 0.149-2.741 0.482-0.778 0.315-1.5 0.759-2.129 1.333-0.631 0.574-1.15 1.241-1.52 1.999-0.316 0.61-0.537 1.26-0.667 1.945-0.129 0.704-0.146 1.426-0.055 2.129 0.092 0.686 0.278 1.353 0.555 1.98 0.426 0.945 1.055 1.778 1.834 2.464l-0.112 0.5c-0.074 0.389-0.055 0.759-0.055 1.166v0.519c-1.297-0.795-2.372-1.945-3.093-3.278-0.427-0.759-0.722-1.574-0.89-2.427-0.204-0.945-0.24-1.925-0.111-2.889 0.111-0.87 0.352-1.722 0.704-2.501 0.426-0.961 1.055-1.851 1.796-2.61 0.759-0.759 1.648-1.37 2.61-1.796 1.074-0.481 2.24-0.741 3.408-0.778 1.186-0.020 2.372 0.185 3.462 0.612 1.001 0.388 1.909 0.961 2.704 1.684 0.777 0.722 1.445 1.573 1.925 2.519 0.389 0.778 0.686 1.611 0.834 2.463 0.149 0.89 0.185 1.796 0.055 2.686-0.111 0.87-0.351 1.722-0.724 2.518-0.721 1.612-1.962 3.001-3.481 3.909l0.14-0.13zM15.914 10.43c1.803 0 3.266 1.462 3.266 3.269 0 1.813-1.463 3.276-3.266 3.276-1.806 0-3.268-1.463-3.268-3.259s1.462-3.26 3.268-3.26v-0.026z"></path>
</symbol>
<symbol id="icon-px" viewBox="0 0 32 32">
<title>px</title>
<path d="M10.386 12.32c-2.031 0.003-3.677 1.649-3.68 3.68v0c0.002 2.032 1.648 3.678 3.68 3.68h0c2.031-0.003 3.677-1.649 3.68-3.68v-0c-0.002-2.032-1.648-3.678-3.68-3.68h-0zM10.386 18.896c-1.596 0-2.897-1.3-2.897-2.896s1.301-2.896 2.897-2.896 2.896 1.3 2.896 2.896-1.3 2.896-2.896 2.896zM18.352 12.32c-2.031 0.003-3.677 1.649-3.68 3.68v0c0.002 2.032 1.648 3.678 3.68 3.68h0c2.031-0.003 3.677-1.649 3.68-3.68v-0c-0.003-2.031-1.649-3.677-3.68-3.68h-0zM18.352 18.896c-1.598 0-2.896-1.3-2.896-2.896s1.298-2.896 2.896-2.896c1.596 0 2.896 1.3 2.896 2.896s-1.3 2.896-2.896 2.896zM4.060 14.527c-0.112-0.017-0.242-0.027-0.373-0.027-0.603 0-1.157 0.206-1.597 0.552l0.006-0.004v-1.951h3.307c0.114 0 0.197-0.021 0.197-0.359 0-0.331-0.133-0.345-0.222-0.345h-3.66c-0.214 0-0.326 0.172-0.326 0.362v3.202c0 0.167 0.107 0.225 0.304 0.263 0.174 0.034 0.274 0.015 0.351-0.070l0.007-0.012c0.348-0.502 1.108-0.99 1.829-0.901 0.86 0.106 1.553 0.793 1.649 1.633 0.008 0.064 0.012 0.138 0.012 0.213 0 1.027-0.832 1.86-1.86 1.861h-0c-0.782 0-1.465-0.502-1.749-1.232-0.043-0.108-0.113-0.187-0.422-0.076-0.282 0.102-0.299 0.223-0.261 0.33 0.373 1.002 1.32 1.703 2.432 1.706h0c1.423-0.008 2.573-1.163 2.573-2.587 0-1.291-0.946-2.362-2.183-2.556l-0.015-0.002zM24.548 12.356c-0.991 0.076-1.765 0.946-1.765 1.982v3.275c0 0.19 0.144 0.229 0.361 0.229s0.361-0.038 0.361-0.229v-3.284c0-0.645 0.47-1.199 1.068-1.26 0.039-0.004 0.083-0.007 0.128-0.007 0.31 0 0.593 0.118 0.805 0.312l-0.001-0.001c0.244 0.222 0.396 0.541 0.396 0.896 0 0 0 0.001 0 0.001v-0c0 0.098-0.048 0.418-0.267 0.715-0.166 0.224-0.481 0.491-1.039 0.491h-0.011c-0.142 0-0.265 0.006-0.288 0.345-0.016 0.229-0.015 0.331 0.182 0.357 0.352 0.049 0.709-0.020 1.065-0.204 0.606-0.315 1.012-0.912 1.060-1.559 0.004-0.044 0.006-0.095 0.006-0.146 0-0.53-0.215-1.010-0.562-1.358l0 0c-0.347-0.346-0.826-0.559-1.355-0.559-0.051 0-0.101 0.002-0.151 0.006l0.007-0zM29.371 14.274l1.335-1.335c0.049-0.048 0.162-0.162-0.068-0.399-0.098-0.102-0.188-0.154-0.267-0.154h-0.001c-0.060 0.001-0.113 0.029-0.149 0.071l-0 0-1.339 1.339-1.337-1.345c-0.108-0.108-0.234-0.082-0.396 0.080-0.166 0.167-0.193 0.295-0.085 0.404l1.337 1.344-1.318 1.318c-0.032 0.031-0.080 0.078-0.080 0.154-0.001 0.078 0.052 0.171 0.155 0.274 0.086 0.087 0.17 0.132 0.246 0.132 0.085 0 0.14-0.055 0.171-0.086l1.314-1.313 1.343 1.344c0.036 0.034 0.084 0.055 0.138 0.055 0.001 0 0.002 0 0.003-0h0.002c0.085 0 0.175-0.049 0.267-0.145 0.15-0.159 0.176-0.29 0.075-0.393l-1.346-1.345z"></path>
</symbol>
<symbol id="icon-quora" viewBox="0 0 32 32">
<title>quora</title>
<path d="M16.908 24.247c-1.023-2.012-2.222-4.046-4.564-4.046-0.446 0-0.895 0.075-1.303 0.257l-0.795-1.586c0.967-0.834 2.533-1.494 4.545-1.494 3.131 0 4.74 1.513 6.016 3.436 0.754-1.643 1.113-3.865 1.113-6.615 0-6.87-2.146-10.396-7.166-10.396-4.945 0-7.086 3.526-7.086 10.396 0 6.834 2.14 10.325 7.086 10.325 0.788 0 1.502-0.085 2.154-0.277zM18.134 26.644c-1.084 0.292-2.236 0.45-3.376 0.45-6.587 0-13.034-5.254-13.034-12.896 0.001-7.711 6.447-12.967 13.034-12.967 6.697 0 13.081 5.216 13.081 12.969 0 4.313-2.012 7.817-4.935 10.081 0.94 1.413 1.899 2.356 3.264 2.356 1.476 0 2.068-1.126 2.178-2.030h1.916c0.113 1.199-0.495 6.162-5.866 6.162-3.264 0-4.981-1.881-6.272-4.096l0.010-0.030z"></path>
</symbol>
<symbol id="icon-reddit" viewBox="0 0 32 32">
<title>reddit</title>
<path d="M3.943 18.522c-0.074 0.34-0.112 0.689-0.112 1.042 0 4.238 5.418 7.691 12.079 7.691 6.658 0 12.076-3.451 12.076-7.691 0-0.337-0.036-0.672-0.101-0.996l-0.018-0.039c-0.026-0.068-0.036-0.135-0.036-0.203-0.372-1.446-1.375-2.758-2.826-3.819-0.055-0.020-0.108-0.048-0.155-0.086-0.032-0.025-0.055-0.052-0.082-0.079-2.206-1.519-5.361-2.471-8.857-2.471-3.465 0-6.59 0.934-8.795 2.426-0.017 0.022-0.036 0.041-0.060 0.060-0.048 0.041-0.103 0.074-0.16 0.092-1.484 1.061-2.513 2.384-2.897 3.844 0 0.071-0.017 0.14-0.046 0.21l-0.010 0.018zM15.972 25.218c-2.208 0-3.762-0.479-4.754-1.473-0.213-0.214-0.213-0.562 0-0.778 0.217-0.203 0.566-0.203 0.782 0 0.775 0.774 2.074 1.161 3.973 1.161 1.898 0 3.189-0.369 3.962-1.143 0.203-0.202 0.554-0.202 0.774 0 0.203 0.222 0.203 0.572 0 0.794-0.996 0.994-2.542 1.474-4.753 1.474l0.017-0.034zM11.534 15.898c-1.125 0-2.064 0.942-2.064 2.064 0 1.12 0.939 2.031 2.064 2.031s2.032-0.911 2.032-2.031c0-1.122-0.91-2.064-2.032-2.064zM20.436 15.898c-1.125 0-2.065 0.942-2.065 2.064 0 1.12 0.94 2.031 2.065 2.031s2.032-0.911 2.032-2.031c0-1.122-0.91-2.064-2.032-2.064zM26.033 13.935c1.276 1.025 2.215 2.241 2.694 3.574 0.554-0.414 0.885-1.063 0.885-1.783 0-1.233-1.003-2.235-2.238-2.235-0.491 0-0.958 0.159-1.342 0.447v-0.002zM4.567 13.493c-1.234 0-2.236 1.004-2.236 2.238 0 0.668 0.294 1.29 0.793 1.71 0.494-1.328 1.442-2.527 2.724-3.54-0.372-0.258-0.816-0.405-1.279-0.405v-0.002zM15.911 28.359c-7.269 0-13.18-3.945-13.18-8.79 0-0.338 0.028-0.67 0.084-0.996-0.976-0.607-1.584-1.676-1.584-2.848 0-1.841 1.51-3.339 3.354-3.339 0.83 0 1.604 0.303 2.212 0.839 2.284-1.466 5.362-2.389 8.753-2.452l2.23-6.799 0.497 0.117s0.020 0 0.020 0.002l5.198 1.222c0.423-0.982 1.401-1.674 2.542-1.674 1.513 0 2.746 1.236 2.746 2.75 0 1.516-1.234 2.75-2.746 2.75s-2.745-1.236-2.745-2.745l-4.74-1.122-1.806 5.51c3.262 0.129 6.212 1.051 8.423 2.487 0.608-0.571 1.408-0.885 2.256-0.885 1.844 0 3.345 1.493 3.345 3.337 0 1.215-0.665 2.321-1.696 2.911 0.036 0.314 0.073 0.608 0.073 0.922-0.018 4.847-5.915 8.791-13.194 8.791l-0.042 0.011zM25.978 4.745c-0.911 0-1.649 0.737-1.649 1.647 0 0.908 0.738 1.649 1.649 1.649 0.901 0 1.637-0.738 1.637-1.642 0-0.902-0.736-1.639-1.658-1.639l0.021-0.015z"></path>
</symbol>
<symbol id="icon-rss" viewBox="0 0 32 32">
<title>rss</title>
<path d="M24.86 30.769c0-12.964-10.666-23.631-23.63-23.631v-5.908c16.203 0 29.538 13.335 29.538 29.538h-5.909zM5.281 22.665c2.233 0 4.053 1.82 4.053 4.055 0 2.231-1.828 4.049-4.063 4.049-2.231 0-4.041-1.814-4.041-4.049s1.815-4.054 4.050-4.055zM20.811 30.769h-5.742c0-7.593-6.246-13.84-13.839-13.84v-5.742c10.741 0 19.58 8.842 19.58 19.582z"></path>
</symbol>
<symbol id="icon-runkeeper" viewBox="0 0 32 32">
<title>runkeeper</title>
<path d="M17.815 21.703c2.322-0.316 4.010-1.371 5.584-3.163 1.846-2.162 2.375-5.061 1.633-7.803-0.738-2.638-2.843-4.694-5.588-5.066-3.393-0.524-6.914 1.108-9.401 3.328-0.055 0.049-0.203 0.155-0.258 0.258-0.258-0.473-0.593-0.948-0.948-1.317-0.474-0.686-1.526-1.794-1.582-1.846-0.209-0.263-0.578-0.316-0.788-0.421-0.649-0.139-1.093-0.357-1.371-0.517-0.015-0.022-0.033-0.042-0.055-0.066l-2.687-2.846c-0.263-0.214-0.583-0.263-0.846 0-0.209 0.263-0.263 0.581 0 0.844l2.662 2.873 0.037-0.002c0.095 0.167 0.428 0.446 0.558 1.022 0.055 0.258 0.204 0.574 0.464 0.944 0 0 1.854 2 2.594 3.354 0.687 1.371 0.853 1.797 0.945 2.055 0 0.037-0.686-0.795-1.482-1.37-3.058 3.483-5.284 7.655-5.932 12.177-0.686 4.634 1.854 5.858 3.745 5.802 1.519 0 4.689-1.631 6.375-5.69 1.631-3.946 1.372-8.487-0.277-12.438 1.575-1.593 4.485-3.483 7.321-3.428 2.112 0 3.169 1.834 3.318 2.002 1.63 2.946-0.279 5.598-0.279 5.598-1.056 1.594-2.892 2.336-3.856 2.593-0.722 0.204-2.095 0.148-2.428 0-0.202-0.055-0.258-0.167-0.258-0.315 0-0.222 0.167-0.314 0.315-0.314 0.204 0 0.315 0.148 0.315 0.315v0.17c0.538 0.148 1.575 0.037 2.002 0-0.335-0.793-1.058-1.215-2.022-1.215h-0.044c-1.243 0.010-2.244 1.025-2.234 2.27 0 0.948 0.538 1.742 1.317 2.055 0.409 0.16 1.632 0.318 3.151 0.16zM9.422 21.178c-1.058 4.642-4.007 6.277-4.8 6.011-0.79-0.262-1.054-2.585 0.527-6.486 0.266-0.578 1.846-4.218 3.904-6.486-0.055 0.106 1.161 3.535 0.369 6.962zM29.767 22.078l1.002-3.801c0.037-0.315-0.111-0.686-0.428-0.738-0.315-0.053-0.686 0.108-0.721 0.423l-0.997 3.664h-0.117c-0.021 0.027-0.037 0.054-0.054 0.081-0.148 0.263-0.426 0.687-0.834 1.002-0.315 0.263-0.464 0.578-0.464 0.578-0.148 0.158-1.204 3.483-4.521 3.639-3.914 0.158-4.689-4.218-4.745-4.587-0.834 0.156-2.521-0.214-3.207-0.529 0.204 2.425 1.372 5.326 3.429 6.698 2.373 1.634 6.063 1.634 8.601 0 1.465-1.003 2.428-2.268 3.057-3.904l0.055-0.135 0.018-0.041c0.020-0.046 0.020-0.091 0.057-0.139v-0.055c-0.037 0 0-0.316-0.092-0.631-0.202-0.841-0.037-1.37-0.037-1.526z"></path>
</symbol>
<symbol id="icon-shopify" viewBox="0 0 32 32">
<title>shopify</title>
<path d="M20.107 30.743l8.881-1.921s-3.205-21.678-3.231-21.822c-0.022-0.143-0.14-0.236-0.26-0.236s-2.374-0.167-2.374-0.167-1.569-1.568-1.771-1.737c-0.055-0.046-0.092-0.070-0.149-0.091l-1.125 25.974h0.028zM15.643 15.145s-0.997-0.522-2.183-0.522c-1.781 0-1.851 1.115-1.851 1.404 0 1.516 3.988 2.111 3.988 5.697 0 2.825-1.772 4.628-4.192 4.628-2.897 0-4.357-1.803-4.357-1.803l0.795-2.567s1.532 1.312 2.806 1.312c0.831 0 1.2-0.671 1.2-1.147 0-1.993-3.266-2.085-3.266-5.365-0.042-2.753 1.934-5.435 5.941-5.435 1.547 0 2.308 0.444 2.308 0.444l-1.163 3.342-0.025 0.012zM14.978 2.252c0.167 0 0.334 0.047 0.498 0.166-1.211 0.572-2.54 2.017-3.087 4.913-0.807 0.262-1.591 0.498-2.325 0.711 0.639-2.197 2.182-5.778 4.913-5.778v-0.012zM16.498 5.882v0.166c-0.928 0.286-1.948 0.596-2.946 0.906 0.574-2.187 1.641-3.255 2.566-3.657 0.238 0.617 0.38 1.447 0.38 2.585zM17.162 3.132c0.854 0.091 1.404 1.067 1.759 2.16-0.43 0.14-0.905 0.284-1.425 0.45v-0.31c0-0.926-0.118-1.687-0.334-2.303v0.002zM20.844 4.719c-0.025 0-0.074 0.026-0.096 0.026s-0.356 0.092-0.879 0.258c-0.521-1.518-1.447-2.917-3.087-2.917h-0.142c-0.475-0.598-1.049-0.855-1.546-0.855-3.823 0-5.649 4.772-6.222 7.195-1.47 0.449-2.539 0.783-2.658 0.83-0.831 0.262-0.854 0.286-0.95 1.071-0.092 0.569-2.252 17.308-2.252 17.308l16.69 3.135 1.141-26.050z"></path>
</symbol>
<symbol id="icon-sinaweibo" viewBox="0 0 32 32">
<title>sinaweibo</title>
<path d="M13.659 26.244c-4.895 0.481-9.125-1.73-9.442-4.948-0.319-3.211 3.396-6.212 8.295-6.697 4.897-0.485 9.124 1.728 9.441 4.945 0.319 3.2-3.396 6.214-8.292 6.694l-0.002 0.005zM12.369 22.423c-0.473 0.758-1.487 1.088-2.251 0.741-0.753-0.343-0.976-1.22-0.5-1.961 0.466-0.732 1.447-1.060 2.207-0.74 0.766 0.324 1.009 1.196 0.544 1.959zM13.932 20.421c-0.174 0.292-0.553 0.434-0.848 0.311-0.29-0.111-0.385-0.444-0.218-0.721 0.17-0.279 0.537-0.426 0.827-0.295 0.294 0.111 0.388 0.443 0.222 0.74l0.017-0.034zM14.149 17.074c-2.33-0.607-4.964 0.554-5.978 2.607-1.029 2.097-0.032 4.42 2.321 5.182 2.441 0.788 5.314-0.42 6.316-2.682 0.985-2.207-0.247-4.482-2.66-5.106zM23.457 15.568c-0.426-0.129-0.702-0.222-0.498-0.757 0.462-1.202 0.517-2.22 0-2.959-0.961-1.369-3.588-1.296-6.602-0.037 0 0-0.943 0.407-0.703-0.334 0.463-1.498 0.388-2.737-0.332-3.457-1.647-1.646-5.993 0.055-9.708 3.791-2.772 2.794-4.383 5.751-4.383 8.305 0 4.9 6.276 7.871 12.414 7.871 8.044 0 13.401-4.678 13.401-8.394 0-2.242-1.904-3.513-3.588-4.042v0.012zM25.806 9.301c-0.943-1.054-2.348-1.461-3.643-1.184-0.537 0.111-0.869 0.629-0.758 1.147 0.111 0.517 0.629 0.85 1.147 0.741 0.629-0.129 1.313 0.054 1.775 0.572 0.463 0.518 0.574 1.202 0.389 1.813-0.167 0.5 0.11 1.054 0.628 1.221 0.498 0.146 1.055-0.129 1.221-0.63 0.406-1.257 0.148-2.681-0.795-3.735l0.037 0.055zM28.782 6.599c-1.94-2.162-4.806-2.977-7.451-2.422-0.61 0.128-0.999 0.722-0.869 1.33 0.128 0.61 0.721 1.001 1.332 0.87 1.886-0.407 3.92 0.185 5.287 1.702 1.369 1.534 1.759 3.622 1.166 5.435-0.203 0.591 0.13 1.239 0.721 1.424 0.59 0.203 1.22-0.128 1.424-0.721 0.831-2.57 0.297-5.511-1.647-7.674l0.037 0.055z"></path>
</symbol>
<symbol id="icon-skype" viewBox="0 0 32 32">
<title>skype</title>
<path d="M16.085 24.46c-4.951 0-7.163-2.436-7.163-4.263 0-0.942 0.69-1.595 1.641-1.595 2.121 0 1.567 3.049 5.522 3.049 2.020 0 3.138-1.102 3.138-2.229 0-0.678-0.331-1.428-1.666-1.759l-4.401-1.102c-3.545-0.891-4.188-2.814-4.188-4.617 0-3.75 3.521-5.158 6.83-5.158 3.041 0 6.638 1.69 6.638 3.937 0 0.965-0.847 1.526-1.788 1.526-1.808 0-1.474-2.507-5.125-2.507-1.808 0-2.821 0.817-2.821 1.99s1.419 1.548 2.655 1.83l3.246 0.722c3.558 0.799 4.46 2.887 4.46 4.854 0 3.047-2.341 5.322-7.042 5.322zM29.66 18.453l-0.036 0.166-0.054-0.295c0.018 0.055 0.054 0.091 0.073 0.148 0.148-0.831 0.223-1.678 0.223-2.526 0-1.882-0.37-3.707-1.105-5.44-0.7-1.659-1.717-3.153-2.987-4.426-1.291-1.271-2.766-2.284-4.425-2.986-1.622-0.777-3.447-1.145-5.327-1.145-0.886 0-1.777 0.086-2.638 0.251l0.146 0.074-0.294-0.041 0.146-0.031c-1.186-0.635-2.517-0.972-3.868-0.972-2.202 0-4.271 0.859-5.829 2.421-1.558 1.561-2.416 3.638-2.416 5.845 0 1.407 0.359 2.788 1.039 4.010l0.025-0.153 0.050 0.294-0.074-0.142c-0.14 0.794-0.212 1.599-0.212 2.406 0 1.883 0.369 3.713 1.088 5.435 0.699 1.676 1.696 3.17 2.987 4.442 1.273 1.292 2.766 2.286 4.425 3.006 1.716 0.738 3.541 1.105 5.42 1.105 0.811 0 1.642-0.074 2.433-0.22l-0.146-0.076 0.295 0.057-0.166 0.037c1.233 0.7 2.617 1.072 4.054 1.072 2.194 0 4.257-0.849 5.825-2.416 1.55-1.55 2.415-3.632 2.415-5.845 0-1.401-0.368-2.784-1.050-4.020z"></path>
</symbol>
<symbol id="icon-slack" viewBox="0 0 32 32">
<title>slack</title>
<path d="M7.436 19.895c-0.003 1.712-1.39 3.1-3.101 3.105h-0.001c-1.713-0.004-3.1-1.392-3.104-3.105v-0c0.005-1.712 1.392-3.098 3.104-3.102h3.102v3.102zM9.001 19.895c0.005-1.711 1.391-3.097 3.102-3.102h0c1.712 0.004 3.098 1.39 3.103 3.101v7.77c-0.004 1.712-1.391 3.099-3.102 3.104h-0c-1.712-0.005-3.099-1.392-3.103-3.104v-7.77zM12.103 7.436c-1.711-0.005-3.097-1.39-3.103-3.101v-0.001c0.004-1.712 1.391-3.099 3.102-3.104h0c1.712 0.005 3.099 1.392 3.103 3.104v3.102h-3.103zM12.103 9.001c1.712 0.005 3.098 1.391 3.103 3.102v0c-0.005 1.712-1.391 3.098-3.102 3.103h-7.769c-1.712-0.004-3.099-1.391-3.104-3.102v-0c0.005-1.712 1.392-3.099 3.104-3.103h7.769zM24.561 12.103c0.005-1.712 1.392-3.099 3.104-3.103h0c1.712 0.004 3.099 1.391 3.104 3.102v0c-0.005 1.712-1.392 3.099-3.104 3.103h-3.104v-3.103zM23.001 12.103c-0.005 1.713-1.393 3.099-3.105 3.103h-0c-1.711-0.005-3.097-1.391-3.102-3.102v-7.769c0.003-1.712 1.39-3.099 3.101-3.104h0c1.713 0.004 3.101 1.391 3.105 3.104v7.769zM19.895 24.561c1.713 0.003 3.101 1.391 3.105 3.104v0c-0.004 1.713-1.392 3.101-3.105 3.104h-0c-1.712-0.005-3.098-1.392-3.102-3.104v-3.104h3.102zM19.895 23.001c-1.712-0.005-3.099-1.393-3.102-3.105v-0c0.004-1.711 1.39-3.097 3.101-3.102h7.77c1.712 0.003 3.099 1.39 3.104 3.101v0c-0.003 1.713-1.391 3.101-3.104 3.105h-7.77z"></path>
</symbol>
<symbol id="icon-snapchat" viewBox="0 0 32 32">
<title>snapchat</title>
<path d="M16.254 2.207c1.218 0 5.35 0.34 7.298 4.703 0.651 1.468 0.496 3.962 0.368 5.966l-0.004 0.074c-0.015 0.222-0.027 0.425-0.037 0.628 0.092 0.055 0.25 0.111 0.494 0.111 0.369-0.020 0.811-0.148 1.271-0.37 0.203-0.108 0.423-0.128 0.571-0.128 0.224 0 0.442 0.036 0.626 0.111 0.554 0.183 0.903 0.59 0.903 1.031 0.018 0.553-0.48 1.033-1.493 1.438-0.11 0.036-0.257 0.092-0.423 0.146-0.554 0.166-1.402 0.443-1.641 0.997-0.111 0.276-0.075 0.645 0.148 1.068l0.018 0.018c0.074 0.167 1.878 4.277 5.897 4.94 0.314 0.054 0.535 0.332 0.517 0.626 0 0.092-0.018 0.183-0.055 0.277-0.295 0.7-1.567 1.216-3.872 1.564-0.073 0.112-0.148 0.462-0.202 0.702-0.036 0.22-0.091 0.443-0.165 0.681-0.094 0.334-0.332 0.498-0.683 0.498h-0.037c-0.166 0-0.385-0.038-0.662-0.091-0.443-0.092-0.942-0.166-1.567-0.166-0.369 0-0.737 0.018-1.124 0.091-0.738 0.128-1.382 0.571-2.121 1.088-1.050 0.737-2.247 1.585-4.054 1.585-0.074 0-0.146-0.018-0.222-0.018h-0.183c-1.807 0-2.987-0.831-4.036-1.585-0.737-0.517-1.362-0.959-2.101-1.088-0.386-0.055-0.774-0.091-1.142-0.091-0.665 0-1.179 0.11-1.566 0.183-0.26 0.053-0.481 0.091-0.665 0.091-0.46 0-0.644-0.276-0.718-0.517-0.075-0.236-0.111-0.479-0.166-0.698-0.057-0.223-0.129-0.608-0.204-0.702-2.361-0.273-3.631-0.79-3.925-1.509-0.038-0.078-0.064-0.185-0.068-0.277-0.018-0.299 0.203-0.572 0.517-0.626 4.017-0.665 5.822-4.774 5.897-4.948l0.020-0.036c0.222-0.425 0.276-0.794 0.146-1.070-0.24-0.534-1.088-0.81-1.639-0.996-0.149-0.036-0.295-0.091-0.426-0.146-1.362-0.535-1.547-1.145-1.473-1.567 0.111-0.59 0.83-0.976 1.438-0.976 0.18 0 0.332 0.036 0.471 0.091 0.517 0.239 0.971 0.369 1.359 0.369 0.288 0 0.473-0.074 0.572-0.129l-0.057-0.7c-0.121-2.001-0.277-4.494 0.378-5.953 1.894-4.341 6.014-4.673 7.23-4.673l0.516-0.018h0.074z"></path>
</symbol>
<symbol id="icon-soundcloud" viewBox="0 0 32 32">
<title>soundcloud</title>
<path d="M2.677 16.277c-0.063 0-0.116 0.057-0.124 0.123l-0.287 2.651 0.287 2.591c0.009 0.071 0.062 0.121 0.124 0.121 0.062 0 0.111-0.049 0.122-0.121l0.314-2.591-0.332-2.651c0-0.070-0.055-0.123-0.111-0.123zM1.563 17.296c-0.074 0-0.112 0.046-0.128 0.116l-0.204 1.639 0.203 1.61c0 0.068 0.055 0.116 0.111 0.116s0.11-0.055 0.128-0.128l0.258-1.623-0.258-1.642c0-0.075-0.054-0.111-0.111-0.111zM3.814 15.76c-0.075 0-0.148 0.055-0.148 0.128l-0.258 3.154 0.277 3.025c0 0.074 0.055 0.148 0.146 0.148 0.075 0 0.129-0.075 0.149-0.148l0.313-3.045-0.313-3.136c-0.020-0.074-0.075-0.148-0.149-0.148zM4.994 15.63c-0.092 0-0.166 0.074-0.185 0.166l-0.238 3.249 0.258 3.131c0.020 0.095 0.092 0.17 0.183 0.17 0.092 0 0.166-0.075 0.185-0.185l0.295-3.116-0.295-3.228c0-0.092-0.074-0.166-0.166-0.166l-0.038-0.021zM6.416 16.073c-0.006-0.111-0.092-0.183-0.196-0.183-0.111 0-0.194 0.074-0.202 0.183l-0.267 2.991 0.246 3.154c0 0.111 0.092 0.193 0.196 0.193 0.091 0 0.182-0.084 0.182-0.194l0.279-3.154-0.279-3.008 0.041 0.018zM7.412 13.969c-0.124 0-0.222 0.111-0.222 0.223l-0.258 4.87 0.23 3.154c0 0.111 0.098 0.202 0.222 0.202 0.116 0 0.214-0.111 0.222-0.222l0.257-3.154-0.257-4.889c-0.010-0.128-0.108-0.222-0.222-0.222zM8.564 12.807c-0.129 0-0.24 0.111-0.25 0.239l-0.222 5.996 0.203 3.136c0 0.148 0.111 0.257 0.24 0.257 0.128 0 0.239-0.11 0.258-0.257l0.238-3.136-0.236-5.977c-0.020-0.148-0.129-0.258-0.258-0.258zM9.754 12.255c-0.149 0-0.26 0.11-0.277 0.257l-0.203 6.492 0.203 3.102c0.017 0.146 0.128 0.277 0.277 0.277 0.146 0 0.277-0.129 0.277-0.277l0.24-3.102-0.241-6.492c0-0.148-0.129-0.277-0.277-0.277zM11.285 12.29c0-0.166-0.129-0.295-0.295-0.295-0.146 0-0.295 0.129-0.295 0.295l-0.183 6.697 0.183 3.081c0.020 0.166 0.149 0.295 0.315 0.295s0.295-0.129 0.295-0.295l0.202-3.081-0.202-6.715-0.020 0.018zM12.207 12.126c-0.166 0-0.314 0.146-0.314 0.313l-0.185 6.55 0.185 3.044c0 0.185 0.148 0.314 0.314 0.314s0.314-0.148 0.314-0.332l0.185-3.045-0.203-6.532c0-0.182-0.148-0.332-0.334-0.332zM13.406 12.309c-0.202 0-0.35 0.166-0.35 0.351l-0.127 6.33 0.166 3.045c0 0.183 0.146 0.341 0.35 0.341 0.183 0 0.334-0.148 0.35-0.351l0.149-3.007-0.166-6.292c-0.015-0.202-0.166-0.351-0.351-0.351zM14.884 11.212c-0.055-0.036-0.129-0.054-0.203-0.054s-0.146 0.018-0.203 0.054c-0.111 0.066-0.183 0.185-0.183 0.314v0.075l-0.128 7.444 0.142 3.014v0.010c0.010 0.074 0.037 0.166 0.091 0.222 0.071 0.075 0.175 0.128 0.288 0.128 0.098 0 0.194-0.054 0.257-0.111 0.071-0.074 0.112-0.166 0.112-0.277l0.018-0.295 0.144-2.711-0.166-7.49c0-0.128-0.075-0.238-0.166-0.294l-0.002-0.027zM16.122 10.539c-0.055-0.055-0.111-0.075-0.185-0.075-0.091 0-0.183 0.020-0.257 0.075-0.092 0.075-0.146 0.185-0.146 0.295v0.036l-0.169 8.134 0.094 1.495 0.075 1.458c0 0.202 0.182 0.386 0.404 0.386 0.223 0 0.406-0.185 0.406-0.405l0.185-2.971-0.185-8.169c0-0.148-0.091-0.272-0.203-0.341zM27.136 15.108c-0.498 0-0.978 0.106-1.402 0.286-0.295-3.266-3.028-5.829-6.385-5.829-0.811 0-1.606 0.166-2.325 0.442-0.277 0.111-0.332 0.222-0.351 0.442v11.53c0.020 0.222 0.185 0.406 0.406 0.425h10.074c1.993 0.020 3.616-1.585 3.616-3.596s-1.623-3.633-3.616-3.633z"></path>
</symbol>
<symbol id="icon-sourceforge" viewBox="0 0 32 32">
<title>sourceforge</title>
<path d="M4.222 15.214c0-0.458 0.373-0.868 0.831-0.868h8.576c0.334-0.004 0.598-0.27 0.598-0.601v-1.791c0-0.332-0.27-0.599-0.601-0.599h-9.404c-1.652 0.001-2.991 1.339-2.991 2.988v3.317c0 1.652 1.337 2.992 2.986 2.992h6.18c0.458 0 0.832 0.407 0.832 0.869v1.578c0 0.457-0.374 0.87-0.832 0.87h-8.567c-0.334 0-0.597 0.267-0.597 0.598v1.788c0 0.33 0.266 0.598 0.597 0.598h9.408c1.649 0 2.986-1.338 2.986-2.987v-3.319c0-1.649-1.337-2.988-2.987-2.988h-6.185c-0.458 0-0.831-0.411-0.831-0.866v-1.579zM30.176 11.361h-6.183v-3.33h6.178c0.327 0 0.594-0.267 0.594-0.598v-1.79c0-0.334-0.265-0.598-0.596-0.598h-6.177c-1.649 0-2.987 1.338-2.987 2.987v3.33h-2.864c-0.332 0-0.596 0.268-0.596 0.597v1.796c0 0.33 0.266 0.596 0.594 0.596h2.862v9.788c0 0.295 0.122 0.35 0.373 0.35 0.601 0 2.614-1.12 2.614-2.078v-8.063h6.183c0.327 0 0.596-0.268 0.596-0.596v-1.797c0-0.327-0.27-0.594-0.596-0.594h0.004z"></path>
</symbol>
<symbol id="icon-spotify" viewBox="0 0 32 32">
<title>spotify</title>
<path d="M16 1.231c-8.123 0-14.769 6.646-14.769 14.769s6.646 14.769 14.769 14.769 14.769-6.646 14.769-14.769-6.572-14.769-14.769-14.769zM22.795 22.572c-0.295 0.442-0.812 0.591-1.257 0.295-3.471-2.142-7.828-2.586-12.998-1.404-0.514 0.15-0.959-0.22-1.106-0.663-0.148-0.518 0.222-0.96 0.665-1.108 5.612-1.257 10.486-0.738 14.326 1.625 0.517 0.222 0.59 0.811 0.37 1.255zM24.567 18.511c-0.37 0.517-1.035 0.738-1.553 0.369-3.986-2.437-10.042-3.175-14.694-1.698-0.59 0.148-1.255-0.148-1.403-0.738s0.148-1.257 0.738-1.404c5.391-1.623 12.037-0.81 16.615 1.995 0.444 0.223 0.665 0.96 0.297 1.477zM24.715 14.375c-4.727-2.806-12.629-3.102-17.134-1.697-0.738 0.22-1.477-0.223-1.698-0.887-0.222-0.74 0.222-1.477 0.886-1.7 5.243-1.551 13.883-1.255 19.349 1.995 0.663 0.369 0.885 1.255 0.516 1.92-0.368 0.518-1.255 0.737-1.919 0.369z"></path>
</symbol>
<symbol id="icon-stackoverflow" viewBox="0 0 32 32">
<title>stackoverflow</title>
<path d="M24.598 28.142v-7.882h2.626v10.51h-23.724v-10.51h2.622v7.882h18.476zM8.752 25.515h13.217v-2.63h-13.217v2.63zM9.071 19.543l12.898 2.694 0.555-2.548-12.896-2.692-0.558 2.545zM10.743 13.321l11.945 5.575 1.111-2.4-11.946-5.575-1.11 2.383v0.017zM14.085 7.431l10.113 8.437 1.673-1.994-10.112-8.434-1.662 1.99-0.012 0.001zM20.617 1.231l-2.149 1.593 7.883 10.59 2.149-1.593-7.883-10.59z"></path>
</symbol>
<symbol id="icon-stripe" viewBox="0 0 32 32">
<title>stripe</title>
<path d="M18.432 12.492c-2.673-0.992-4.13-1.755-4.13-2.965 0-1.023 0.841-1.606 2.34-1.606 2.741 0 5.557 1.056 7.495 2.007l1.095-6.762c-1.537-0.736-4.682-1.936-9.029-1.936-3.074 0-5.632 0.805-7.46 2.304-1.9 1.569-2.889 3.84-2.889 6.58 0 4.971 3.036 7.089 7.97 8.885 3.182 1.132 4.24 1.937 4.24 3.179 0 1.206-1.034 1.902-2.897 1.902-2.308 0-6.111-1.134-8.603-2.596l-1.108 6.837c2.143 1.205 6.094 2.448 10.191 2.448 3.25 0 5.961-0.768 7.788-2.231 2.048-1.606 3.108-3.983 3.108-7.055 0-5.081-3.106-7.201-8.116-8.991h0.004z"></path>
</symbol>
<symbol id="icon-tiktok" viewBox="0 0 32 32">
<title>tiktok</title>
<path d="M16.707 0.027c1.747-0.027 3.48-0.013 5.213-0.027 0.107 2.040 0.84 4.12 2.333 5.56 1.493 1.48 3.6 2.16 5.653 2.387v5.373c-1.92-0.067-3.853-0.467-5.6-1.293-0.76-0.347-1.467-0.787-2.16-1.24-0.013 3.893 0.013 7.787-0.027 11.667-0.107 1.867-0.72 3.72-1.8 5.253-1.747 2.56-4.773 4.227-7.88 4.28-1.907 0.107-3.813-0.413-5.44-1.373-2.693-1.587-4.587-4.493-4.867-7.613-0.027-0.667-0.040-1.333-0.013-1.987 0.24-2.533 1.493-4.96 3.44-6.613 2.213-1.92 5.307-2.84 8.2-2.293 0.027 1.973-0.053 3.947-0.053 5.92-1.32-0.427-2.867-0.307-4.027 0.493-0.84 0.547-1.48 1.387-1.813 2.333-0.28 0.68-0.2 1.427-0.187 2.147 0.32 2.187 2.427 4.027 4.667 3.827 1.493-0.013 2.92-0.88 3.693-2.147 0.253-0.44 0.533-0.893 0.547-1.413 0.133-2.387 0.080-4.76 0.093-7.147 0.013-5.373-0.013-10.733 0.027-16.093z"></path>
</symbol>
<symbol id="icon-trello" viewBox="0 0 32 32">
<title>trello</title>
<path d="M27.077 1.231h-22.154c-2.039 0-3.692 1.653-3.692 3.692v22.154c0 2.038 1.653 3.692 3.692 3.692h22.154c2.038 0 3.692-1.654 3.692-3.692v-22.154c0-2.039-1.654-3.692-3.692-3.692zM14.080 23.606c0 0.978-0.794 1.772-1.772 1.772h-5.465c-0.978 0-1.772-0.795-1.772-1.772v-16.763c0-0.978 0.794-1.772 1.772-1.772h5.465c0.978 0 1.772 0.794 1.772 1.772v16.763zM26.929 16.222c0 0.977-0.794 1.772-1.772 1.772h-5.465c-0.978 0-1.772-0.795-1.772-1.772v-9.378c0-0.978 0.795-1.772 1.772-1.772h5.465c0.978 0 1.772 0.794 1.772 1.772v9.378z"></path>
</symbol>
<symbol id="icon-tripadvisor" viewBox="0 0 32 32">
<title>tripadvisor</title>
<path d="M29.552 12.962c0.346-1.486 1.446-2.974 1.446-2.974h-4.938c-2.77-1.791-6.13-2.74-9.862-2.74-3.865 0-7.358 0.96-10.11 2.77h-4.629s1.089 1.46 1.44 2.937c-0.901 1.239-1.436 2.735-1.436 4.378 0 4.081 3.319 7.394 7.399 7.394 2.327 0 4.395-1.089 5.761-2.774l1.569 2.358 1.589-2.383c0.702 0.906 1.625 1.644 2.714 2.142 1.791 0.812 3.806 0.906 5.652 0.222 3.823-1.42 5.78-5.687 4.377-9.509-0.257-0.684-0.591-1.294-0.997-1.828l0.025 0.006zM25.649 22.897c-1.477 0.548-3.083 0.486-4.517-0.176-1.014-0.471-1.85-1.209-2.447-2.126-0.247-0.368-0.462-0.767-0.619-1.195-0.18-0.486-0.271-0.988-0.319-1.495-0.091-1.024 0.055-2.059 0.498-3.019 0.665-1.433 1.847-2.524 3.324-3.072 3.065-1.125 6.462 0.444 7.589 3.497 1.127 3.054-0.443 6.455-3.489 7.585h-0.021zM13.75 20.64c-1.062 1.564-2.858 2.601-4.89 2.601-3.257 0-5.909-2.654-5.909-5.904s2.654-5.91 5.909-5.91 5.905 2.66 5.905 5.91c0 0.202-0.037 0.386-0.059 0.59-0.1 0.998-0.42 1.94-0.956 2.734v-0.020zM5.108 17.259c0 2.020 1.644 3.657 3.657 3.657s3.653-1.637 3.653-3.657c0-2.012-1.641-3.648-3.65-3.648-2.014 0-3.657 1.636-3.657 3.648h-0.002zM19.936 17.259c0 2.020 1.636 3.657 3.653 3.657 2.014 0 3.649-1.637 3.649-3.657 0-2.012-1.636-3.648-3.649-3.648-2.012 0-3.657 1.636-3.657 3.648h0.004zM6.37 17.259c0-1.318 1.070-2.391 2.383-2.391 1.31 0 2.399 1.074 2.399 2.391 0 1.324-1.070 2.401-2.399 2.401-1.33 0-2.401-1.077-2.401-2.401h0.018zM21.18 17.259c0-1.318 1.070-2.391 2.399-2.391 1.312 0 2.384 1.074 2.384 2.391 0 1.324-1.071 2.401-2.402 2.401-1.328 0-2.399-1.077-2.399-2.401h0.018zM16.192 8.542c2.66 0 5.060 0.479 7.166 1.43-0.794 0.022-1.569 0.161-2.346 0.443-1.865 0.683-3.342 2.049-4.154 3.846-0.388 0.812-0.591 1.673-0.666 2.542-0.277-3.786-3.397-6.788-7.238-6.865 2.106-0.903 4.544-1.396 7.184-1.396h0.054z"></path>
</symbol>
<symbol id="icon-tumblr" viewBox="0 0 32 32">
<title>tumblr</title>
<path d="M19.154 30.769c-6.268 0-8.654-4.623-8.654-7.89v-9.652h-2.974v-3.814c4.468-1.616 5.553-5.657 5.797-7.962 0.017-0.158 0.142-0.22 0.213-0.22h4.329v7.525h5.909v4.471h-5.932v9.194c0.020 1.232 0.462 2.918 2.716 2.918h0.111c0.777-0.025 1.829-0.252 2.383-0.516l1.423 4.215c-0.537 0.783-2.954 1.691-5.115 1.728h-0.219l0.014 0.002z"></path>
</symbol>
<symbol id="icon-twitch" viewBox="0 0 32 32">
<title>twitch</title>
<path d="M3.802 1.231l-1.925 5.138v20.546h7.060v3.854h3.855l3.849-3.855h5.778l7.705-7.702v-17.982h-26.321zM6.369 3.797h21.188v14.128l-4.495 4.495h-7.062l-3.849 3.849v-3.849h-5.782v-18.623zM13.434 16.642h2.566v-7.705h-2.566v7.705zM20.492 16.642h2.567v-7.705h-2.567v7.705z"></path>
</symbol>
<symbol id="icon-twitter" viewBox="0 0 32 32">
<title>twitter</title>
<path d="M30.713 6.854c-1.089 0.479-2.252 0.805-3.477 0.954 1.248-0.752 2.208-1.937 2.662-3.351-1.17 0.683-2.468 1.18-3.849 1.457-1.103-1.18-2.674-1.919-4.42-1.919-3.344 0-6.055 2.711-6.055 6.052 0 0.48 0.055 0.942 0.156 1.383-5.034-0.238-9.495-2.655-12.481-6.309-0.526 0.889-0.82 1.921-0.82 3.046 0 2.105 1.071 3.954 2.693 5.041-0.993-0.032-1.927-0.305-2.742-0.758v0.075c0 2.935 2.084 5.383 4.857 5.941-0.508 0.137-1.045 0.21-1.595 0.21-0.386 0-0.757-0.037-1.127-0.106 0.777 2.404 3.009 4.156 5.666 4.206-2.068 1.623-4.688 2.591-7.51 2.591-0.48 0-0.959-0.028-1.44-0.082 2.694 1.716 5.868 2.719 9.301 2.719 11.143 0 17.23-9.226 17.23-17.214 0-0.257 0-0.517-0.018-0.775 1.183-0.848 2.215-1.92 3.028-3.136l-0.058-0.025z"></path>
</symbol>
<symbol id="icon-uber" viewBox="0 0 32 32">
<title>uber</title>
<path d="M15.963 1.238c-0 0-0.001 0-0.001 0-7.633 0-13.913 5.793-14.684 13.223l-0.005 0.063h10.26v-2.215c0.001-0.407 0.331-0.737 0.738-0.737 0 0 0 0 0 0h7.381c0.411 0 0.738 0.33 0.738 0.738v7.381c0 0 0 0 0 0 0 0.407-0.33 0.738-0.737 0.738h-7.385c-0.407-0.001-0.736-0.331-0.736-0.737 0-0 0-0.001 0-0.001v0-2.214h-10.258c0.816 8.113 8.053 14.027 16.165 13.212 8.113-0.816 14.027-8.053 13.211-16.165-0.775-7.492-7.054-13.286-14.687-13.286h-0z"></path>
</symbol>
<symbol id="icon-vimeo" viewBox="0 0 32 32">
<title>vimeo</title>
<path d="M30.741 9.127c-0.129 2.878-2.14 6.822-6.023 11.826-4.022 5.227-7.417 7.84-10.203 7.84-1.734 0-3.173-1.593-4.373-4.777l-2.361-8.756c-0.885-3.18-1.831-4.773-2.846-4.773-0.22 0-0.992 0.465-2.315 1.393l-1.39-1.793c1.458-1.285 2.894-2.565 4.309-3.85 1.943-1.684 3.403-2.566 4.374-2.657 2.298-0.222 3.712 1.354 4.242 4.724 0.572 3.634 0.971 5.894 1.195 6.778 0.663 3.015 1.392 4.522 2.186 4.522 0.618 0 1.546-0.98 2.788-2.935 1.236-1.956 1.895-3.442 1.984-4.465 0.177-1.687-0.486-2.537-1.986-2.537-0.706 0-1.436 0.149-2.187 0.481 1.46-4.761 4.226-7.086 8.322-6.938 3.044 0.074 4.465 2.048 4.299 5.904l-0.016 0.012z"></path>
</symbol>
<symbol id="icon-visa" viewBox="0 0 32 32">
<title>visa</title>
<path d="M22.702 11.844c-0.476-0.18-1.218-0.37-2.142-0.37-2.363 0-4.031 1.191-4.043 2.898-0.015 1.255 1.186 1.962 2.094 2.383 0.932 0.431 1.243 0.702 1.241 1.089-0.006 0.587-0.745 0.853-1.43 0.853-0.943 0-1.46-0.132-2.254-0.462l-0.294-0.137-0.334 1.967c0.574 0.24 1.607 0.446 2.677 0.462 2.512 0 4.154-1.183 4.174-3.002 0.020-1.001-0.628-1.76-1.995-2.385-0.83-0.406-1.346-0.678-1.346-1.090 0-0.364 0.442-0.753 1.365-0.753 0.794-0.012 1.349 0.159 1.791 0.336l0.222 0.1 0.334-1.9-0.058 0.012zM28.834 11.634h-1.846c-0.575 0-1.004 0.156-1.257 0.727l-3.551 8.042h2.512l0.502-1.317 3.065 0.002c0.075 0.308 0.295 1.314 0.295 1.314h2.214l-1.935-8.769zM13.12 11.561h2.391l-1.495 8.774h-2.393l1.497-8.777v0.002zM7.041 16.396l0.249 1.218 2.34-5.98h2.534l-3.767 8.757h-2.528l-2.068-7.417c-0.043-0.127-0.096-0.213-0.222-0.292-0.699-0.366-1.481-0.663-2.348-0.87l0.031-0.185h3.854c0.522 0.020 0.943 0.185 1.087 0.743l0.839 4.028v-0.004zM25.882 17.291l0.954-2.454c-0.012 0.025 0.197-0.507 0.318-0.837l0.164 0.757 0.553 2.532h-1.988v0.002z"></path>
</symbol>
<symbol id="icon-vsco" viewBox="0 0 32 32">
<title>vsco</title>
<path d="M16 1.231c-8.153 0-14.769 6.617-14.769 14.769s6.617 14.769 14.769 14.769 14.769-6.617 14.769-14.769-6.617-14.769-14.769-14.769zM30.178 16c0 0.502-0.028 0.975-0.089 1.447l-2.511-0.295c0.030-0.384 0.062-0.768 0.062-1.152 0-0.354-0.031-0.738-0.062-1.093l2.511-0.295c0.089 0.473 0.089 0.916 0.089 1.388zM1.82 16c0-0.473 0.030-0.946 0.060-1.418l2.511 0.295c-0.030 0.384-0.058 0.738-0.058 1.122s0.028 0.738 0.058 1.122l-2.511 0.295c-0.060-0.471-0.060-0.945-0.060-1.418zM27.017 12.19l2.364-0.886c0.325 0.886 0.533 1.802 0.679 2.747l-2.511 0.295c-0.119-0.738-0.295-1.477-0.533-2.156zM27.077 16c0 0.738-0.089 1.447-0.206 2.156l-2.482-0.56c0.087-0.503 0.146-1.035 0.146-1.596s-0.059-1.122-0.146-1.654l2.482-0.562c0.145 0.71 0.206 1.449 0.206 2.217zM16 23.946c-4.388-0.001-7.945-3.558-7.946-7.946 0.001-4.388 3.558-7.945 7.946-7.946 4.388 0.001 7.945 3.558 7.946 7.946 0.010 4.38-3.534 7.936-7.913 7.946h-0.033zM16.266 27.077v-2.54c1.089-0.036 2.161-0.276 3.161-0.708l1.093 2.304c-1.342 0.593-2.786 0.913-4.254 0.944zM11.422 26.103l1.122-2.305c0.975 0.442 2.038 0.708 3.161 0.738v2.54c-1.479-0.028-2.937-0.361-4.283-0.974zM4.923 16c0-0.768 0.089-1.506 0.236-2.245l2.481 0.561c-0.121 0.554-0.18 1.118-0.177 1.684 0 0.532 0.059 1.063 0.148 1.566l-2.481 0.56c-0.144-0.699-0.214-1.412-0.207-2.126zM15.705 4.923v2.54c-1.079 0.036-2.142 0.276-3.131 0.709l-1.093-2.303c1.333-0.588 2.768-0.91 4.224-0.946zM20.548 5.898l-1.121 2.304c-0.996-0.447-2.070-0.688-3.161-0.709v-2.54c1.536 0 2.983 0.354 4.282 0.945zM26.81 11.628c-0.284-0.689-0.631-1.351-1.034-1.979l2.069-1.418c0.501 0.798 0.945 1.625 1.3 2.511l-2.335 0.886zM26.724 13.223l-2.484 0.561c-0.283-1.046-0.764-2.028-1.417-2.895l2.009-1.594c0.886 1.18 1.536 2.48 1.892 3.927zM22.469 10.447c-0.704-0.821-1.556-1.502-2.511-2.010l1.122-2.303c1.3 0.676 2.453 1.599 3.397 2.718l-2.009 1.595zM21.73 5.839l1.182-2.245c0.827 0.473 1.594 1.004 2.334 1.625l-1.682 1.92c-0.567-0.494-1.18-0.928-1.833-1.3zM21.228 5.573c-0.665-0.327-1.356-0.594-2.068-0.798l0.62-2.452c0.916 0.266 1.802 0.591 2.657 1.034l-1.21 2.215zM18.57 4.628c-0.738-0.177-1.477-0.266-2.245-0.294v-2.513c0.976 0.030 1.95 0.148 2.865 0.356l-0.62 2.452zM15.764 4.334c-0.745 0.026-1.486 0.116-2.215 0.266l-0.591-2.453c0.886-0.207 1.83-0.326 2.806-0.326v2.513zM12.958 4.745c-0.721 0.206-1.423 0.473-2.097 0.799l-1.182-2.245c0.85-0.422 1.742-0.758 2.658-1.004l0.62 2.45zM10.358 5.809c-0.651 0.362-1.264 0.788-1.831 1.27l-1.684-1.89c0.738-0.62 1.506-1.152 2.334-1.623l1.182 2.244zM10.949 6.134l1.093 2.303c-0.975 0.502-1.802 1.182-2.511 1.979l-1.979-1.594c0.954-1.102 2.106-2.014 3.397-2.688zM7.198 9.295l1.979 1.594c-0.652 0.868-1.134 1.85-1.418 2.896l-2.481-0.561c0.384-1.477 1.034-2.806 1.92-3.929zM5.218 11.569l-2.363-0.886c0.353-0.886 0.798-1.743 1.329-2.511l2.068 1.447c-0.42 0.608-0.767 1.262-1.034 1.95zM5.012 12.129c-0.236 0.71-0.443 1.418-0.532 2.186l-2.511-0.293c0.148-0.946 0.354-1.892 0.681-2.778l2.362 0.885zM4.45 17.684c0.118 0.738 0.294 1.477 0.532 2.186l-2.363 0.886c-0.334-0.896-0.561-1.828-0.679-2.778l2.511-0.294zM5.218 20.401c0.294 0.709 0.65 1.359 1.034 1.978l-2.068 1.419c-0.535-0.774-0.981-1.607-1.329-2.481l2.363-0.916zM5.248 18.688l2.482-0.561c0.266 1.063 0.768 2.069 1.388 2.924l-1.98 1.595c-0.892-1.178-1.535-2.524-1.89-3.958zM9.472 21.494c0.71 0.827 1.566 1.536 2.54 2.038l-1.122 2.304c-1.308-0.686-2.473-1.618-3.426-2.747l2.009-1.595zM10.358 26.19l-1.182 2.246c-0.83-0.463-1.612-1.008-2.334-1.626l1.684-1.889c0.561 0.501 1.152 0.916 1.831 1.269zM10.86 26.457c0.65 0.325 1.359 0.591 2.098 0.796l-0.62 2.452c-0.919-0.241-1.81-0.577-2.658-1.003l1.18-2.245zM13.519 27.402c0.709 0.148 1.447 0.238 2.215 0.267v2.51c-0.953-0.032-1.9-0.14-2.837-0.325l0.622-2.452zM16.325 27.668c0.745-0.026 1.486-0.116 2.217-0.267l0.59 2.452c-0.922 0.207-1.862 0.325-2.806 0.353v-2.538zM19.103 27.254c0.721-0.203 1.422-0.47 2.096-0.796l1.182 2.245c-0.847 0.431-1.738 0.767-2.657 1.003l-0.62-2.452zM21.67 26.19c0.65-0.353 1.27-0.796 1.831-1.269l1.685 1.889c-0.724 0.618-1.505 1.163-2.334 1.626l-1.183-2.246zM21.081 25.866l-1.093-2.303c0.97-0.51 1.833-1.202 2.54-2.038l1.977 1.595c-0.958 1.12-2.119 2.053-3.424 2.746zM24.86 22.676l-1.978-1.595c0.655-0.871 1.127-1.867 1.388-2.924l2.482 0.561c-0.383 1.424-1.023 2.767-1.893 3.958zM26.782 20.431l2.363 0.887c-0.354 0.886-0.798 1.713-1.328 2.511l-2.070-1.449c0.415-0.62 0.768-1.27 1.035-1.95zM26.988 19.871c0.236-0.681 0.414-1.418 0.533-2.156l2.51 0.294c-0.135 0.937-0.362 1.856-0.678 2.747l-2.364-0.885zM27.55 7.759l-2.069 1.418c-0.441-0.603-0.935-1.166-1.476-1.684l1.684-1.89c0.679 0.679 1.3 1.388 1.861 2.156zM6.4 5.573l1.684 1.89c-0.561 0.502-1.034 1.063-1.477 1.684l-2.068-1.447c0.53-0.783 1.157-1.497 1.861-2.127zM4.51 24.3l2.068-1.418c0.443 0.591 0.946 1.153 1.477 1.685l-1.684 1.889c-0.674-0.671-1.297-1.392-1.861-2.156zM25.63 26.428l-1.684-1.892c0.532-0.501 1.035-1.062 1.476-1.654l2.070 1.447c-0.562 0.738-1.183 1.446-1.862 2.098z"></path>
</symbol>
<symbol id="icon-wechat" viewBox="0 0 32 32">
<title>wechat</title>
<path d="M30.204 16.921c-0.75-1.698-2.164-3.047-3.806-3.878-2.897-1.467-6.5-1.458-9.39 0.037-2.007 1.030-3.684 2.876-4.159 5.122-0.391 1.654-0.041 3.435 0.837 4.875 1.306 2.169 3.666 3.553 6.118 3.998 1.776 0.361 3.614 0.146 5.339-0.351 1.036 0.401 1.959 1.051 2.964 1.534-0.26-0.87-0.537-1.73-0.832-2.587 1.127-0.8 2.149-1.798 2.762-3.051 0.916-1.742 0.971-3.903 0.166-5.698zM17.99 5.27c-3.071-1.728-6.895-1.988-10.198-0.794-2.171 0.782-4.135 2.234-5.349 4.209-1.102 1.785-1.514 4.010-0.983 6.052 0.533 2.265 2.106 4.164 4.015 5.431-0.369 1.046-0.72 2.091-1.052 3.145 1.2-0.628 2.4-1.284 3.601-1.921 1.44 0.462 2.972 0.688 4.505 0.638-0.406-1.161-0.498-2.418-0.314-3.632 0.277-1.687 1.2-3.231 2.454-4.374 2.124-1.988 5.134-2.826 7.995-2.623-0.537-2.628-2.383-4.848-4.706-6.129h0.033zM20.123 17.564c-0.257 0.802-1.423 1.044-1.988 0.433-0.623-0.565-0.38-1.745 0.437-1.998 0.903-0.382 1.947 0.661 1.551 1.564zM26.025 17.678c-0.315 0.721-1.404 0.89-1.94 0.332-0.257-0.235-0.332-0.59-0.423-0.898 0.128-0.564 0.517-1.148 1.145-1.175 0.868-0.121 1.644 0.951 1.2 1.743h0.018zM17.218 9.734c0.010 1.183-1.569 1.921-2.455 1.119-0.919-0.658-0.658-2.261 0.421-2.592 0.966-0.388 2.108 0.423 2.032 1.458l0.002 0.015zM9.761 10.034c-0.212 1.028-1.589 1.524-2.395 0.834-0.934-0.658-0.672-2.29 0.425-2.623 1.074-0.414 2.295 0.677 1.97 1.788z"></path>
</symbol>
<symbol id="icon-whatsapp" viewBox="0 0 32 32">
<title>whatsapp</title>
<path d="M22.767 18.932c-0.37-0.185-2.175-1.067-2.511-1.189-0.336-0.124-0.582-0.185-0.828 0.185-0.242 0.363-0.949 1.186-1.162 1.43-0.215 0.24-0.43 0.258-0.795 0.092-0.369-0.185-1.554-0.572-2.958-1.828-1.093-0.978-1.826-2.178-2.043-2.548-0.214-0.369-0.023-0.572 0.16-0.757 0.167-0.166 0.37-0.425 0.555-0.644 0.18-0.223 0.239-0.37 0.366-0.61 0.123-0.258 0.060-0.462-0.031-0.645-0.092-0.185-0.827-1.994-1.135-2.715-0.295-0.719-0.599-0.628-0.827-0.628-0.212-0.018-0.457-0.018-0.703-0.018s-0.644 0.091-0.981 0.442c-0.336 0.369-1.286 1.255-1.286 3.046s1.317 3.526 1.5 3.785c0.183 0.24 2.591 3.932 6.277 5.52 0.879 0.369 1.563 0.591 2.097 0.774 0.879 0.279 1.68 0.24 2.314 0.149 0.706-0.112 2.175-0.887 2.481-1.755 0.314-0.868 0.314-1.588 0.222-1.754-0.091-0.166-0.332-0.258-0.702-0.425zM16.075 28h-0.020c-2.178 0-4.337-0.591-6.222-1.698l-0.443-0.263-4.615 1.2 1.237-4.486-0.294-0.462c-1.218-1.94-1.866-4.174-1.866-6.474 0-6.702 5.483-12.166 12.236-12.166 3.266 0 6.332 1.274 8.641 3.582 2.308 2.288 3.58 5.354 3.58 8.603-0.005 6.7-5.489 12.166-12.228 12.166zM26.486 5.476c-2.806-2.713-6.498-4.245-10.431-4.245-8.101 0-14.697 6.565-14.7 14.638 0 2.58 0.676 5.095 1.963 7.317l-2.087 7.584 7.797-2.033c2.149 1.161 4.566 1.777 7.028 1.781h0.007c8.105 0 14.703-6.567 14.706-14.641 0-3.909-1.526-7.588-4.302-10.352z"></path>
</symbol>
<symbol id="icon-wordpress" viewBox="0 0 32 32">
<title>wordpress</title>
<path d="M27.654 9.631c1.034 1.892 1.622 4.062 1.622 6.369 0 4.897-2.654 9.177-6.601 11.477l4.055-11.726c0.757-1.895 1.009-3.41 1.009-4.756 0-0.498-0.032-0.96-0.086-1.366zM17.831 9.759c0.796-0.037 1.516-0.129 1.516-0.129 0.716-0.092 0.633-1.145-0.082-1.106 0 0-2.16 0.166-3.545 0.166-1.31 0-3.508-0.185-3.508-0.185-0.72-0.037-0.814 1.052-0.092 1.089 0 0 0.665 0.075 1.385 0.111l2.068 5.668-2.917 8.714-4.836-14.363c0.799-0.037 1.519-0.123 1.519-0.123 0.72-0.092 0.635-1.145-0.080-1.103 0 0-2.149 0.17-3.537 0.17-0.246 0-0.539-0.010-0.849-0.018 2.402-3.541 6.494-5.922 11.127-5.922 3.457 0 6.603 1.319 8.967 3.487-0.057-0.004-0.112-0.011-0.174-0.011-1.305 0-2.23 1.136-2.23 2.356 0 1.095 0.631 2.022 1.305 3.115 0.506 0.886 1.095 2.022 1.095 3.664 0 1.126-0.436 2.454-1.010 4.282l-1.323 4.412-4.8-14.289 0.001 0.017zM16 29.273c-1.303 0-2.561-0.188-3.751-0.538l3.984-11.577 4.080 11.184c0.030 0.065 0.062 0.124 0.096 0.183-1.378 0.484-2.862 0.75-4.409 0.75zM2.721 16c0-1.925 0.414-3.754 1.151-5.403l6.331 17.353c-4.426-2.153-7.481-6.693-7.482-11.95zM16 1.231c-8.142 0-14.769 6.628-14.769 14.769s6.628 14.769 14.769 14.769 14.769-6.628 14.769-14.769-6.628-14.769-14.769-14.769z"></path>
</symbol>
<symbol id="icon-xero" viewBox="0 0 32 32">
<title>xero</title>
<path d="M16 1.231c-8.156 0-14.769 6.613-14.769 14.769s6.613 14.769 14.769 14.769 14.769-6.613 14.769-14.769-6.613-14.769-14.769-14.769zM24.105 19.268c-1.828 0-3.311-1.484-3.311-3.31 0-1.828 1.486-3.312 3.311-3.312 1.828 0 3.311 1.486 3.311 3.312s-1.486 3.31-3.311 3.31zM10.498 19.254c-0.122 0-0.236-0.050-0.329-0.143l-2.514-2.511-2.526 2.519c-0.085 0.084-0.197 0.133-0.318 0.133-0.249 0-0.453-0.204-0.453-0.453 0-0.122 0.049-0.235 0.137-0.324l2.511-2.523-2.508-2.519c-0.092-0.085-0.139-0.199-0.139-0.321 0-0.25 0.204-0.45 0.453-0.45 0.121 0 0.231 0.046 0.318 0.129l2.529 2.521 2.521-2.517c0.085-0.087 0.199-0.133 0.32-0.133 0.26 0 0.462 0.203 0.462 0.45 0 0.121-0.036 0.231-0.128 0.318l-2.53 2.529 2.529 2.524c0.084 0.085 0.128 0.197 0.128 0.318 0 0.249-0.203 0.453-0.449 0.453h-0.012zM20.366 13.604c-0.98 0.124-1.086 0.586-1.086 1.728v3.43c0 0.249-0.203 0.45-0.45 0.45-0.25 0-0.452-0.203-0.453-0.45v-5.575c0-0.251 0.197-0.45 0.446-0.45 0.204 0 0.389 0.154 0.426 0.356 0.332-0.257 0.738-0.39 1.145-0.39h0.129c0.24 0 0.442 0.203 0.442 0.453 0 0.247-0.202 0.433-0.462 0.442 0 0-0.111 0-0.202 0.010l0.065-0.002zM16.561 16.318h-4.715c0 0.023 0.004 0.046 0.007 0.070 0.025 0.129 0.055 0.26 0.102 0.382 0.239 0.654 0.942 1.569 2.251 1.588 0.406-0.004 0.777-0.106 1.108-0.282 0.258-0.148 0.481-0.334 0.646-0.527 0.055-0.071 0.111-0.138 0.148-0.207 0.222-0.282 0.498-0.229 0.665-0.102 0.202 0.166 0.222 0.481 0.055 0.702l-0.020 0.020c-0.258 0.332-0.535 0.609-0.848 0.812-0.314 0.202-0.646 0.35-0.998 0.425-0.406 0.111-0.794 0.128-1.2 0.074-1.348-0.166-2.474-1.145-2.806-2.474-0.074-0.258-0.111-0.517-0.111-0.794 0-1.052 0.518-2.086 1.385-2.714 1.089-0.757 2.566-0.812 3.692-0.092 0.775 0.498 1.274 1.257 1.458 2.18 0.092 0.516-0.258 0.977-0.903 0.997l0.084-0.057zM24.105 13.582c-1.31 0-2.377 1.065-2.377 2.377 0 1.31 1.066 2.377 2.377 2.377s2.377-1.067 2.377-2.377c0-1.311-1.066-2.379-2.377-2.379v0.002zM24.105 16.775c-0.452 0-0.82-0.366-0.82-0.82 0-0.452 0.369-0.818 0.82-0.818 0.452 0 0.821 0.368 0.821 0.818 0 0.454-0.369 0.821-0.821 0.82zM14.209 13.572c-1.12 0-2.058 0.767-2.321 1.804v0.037h4.647c-0.25-1.052-1.198-1.839-2.327-1.839v-0.002z"></path>
</symbol>
<symbol id="icon-xing" viewBox="0 0 32 32">
<title>xing</title>
<path d="M23.616 1.231c-0.636 0-0.912 0.4-1.141 0.812 0 0-9.175 16.276-9.479 16.809 0.018 0.030 6.054 11.105 6.054 11.105 0.209 0.379 0.537 0.812 1.19 0.812h4.251c0.26 0 0.462-0.096 0.57-0.271 0.11-0.186 0.11-0.426-0.011-0.66l-6.005-10.974c-0.005-0.007-0.005-0.020 0-0.027l9.434-16.677c0.117-0.235 0.119-0.476 0.007-0.658-0.11-0.176-0.309-0.272-0.565-0.272h-4.305zM5.721 7.065c-0.26 0-0.474 0.091-0.582 0.266-0.111 0.183-0.096 0.417 0.025 0.654l2.88 4.985c0.005 0.012 0.005 0.020 0 0.026l-4.523 7.991c-0.122 0.231-0.114 0.469 0 0.651 0.105 0.175 0.294 0.288 0.554 0.288h4.26c0.638 0 0.943-0.428 1.163-0.821l4.596-8.134-2.927-5.114c-0.212-0.388-0.534-0.811-1.184-0.811h-4.261v0.020z"></path>
</symbol>
<symbol id="icon-yelp" viewBox="0 0 32 32">
<title>yelp</title>
<path d="M27.214 23.663c-0.174 1.193-2.608 4.287-3.728 4.735-0.383 0.153-0.752 0.116-1.046-0.111-0.19-0.148-0.386-0.449-3.012-4.71l-0.779-1.27c-0.3-0.455-0.245-1.055 0.128-1.513 0.366-0.442 0.901-0.608 1.367-0.431 0.025 0.015 1.964 0.654 1.964 0.654 4.416 1.451 4.56 1.506 4.747 1.647 0.279 0.229 0.409 0.585 0.351 1.001h0.007zM18.363 17.18c-0.313-0.475-0.308-1.035 0.015-1.422l1.228-1.673c2.694-3.673 2.844-3.866 3.026-3.994 0.315-0.21 0.702-0.22 1.072-0.039 1.070 0.519 3.228 3.728 3.359 4.959v0.042c0.036 0.42-0.129 0.761-0.426 0.965-0.202 0.129-0.386 0.204-5.407 1.423-0.794 0.202-1.236 0.313-1.495 0.405l0.036-0.037c-0.497 0.148-1.051-0.091-1.365-0.59l-0.043-0.039zM15.281 15.278c-0.24 0.075-0.971 0.302-1.87-1.154 0 0-6.069-9.55-6.212-9.844-0.086-0.332 0.018-0.706 0.314-1.009 0.903-0.937 5.806-2.308 7.089-1.995 0.418 0.108 0.706 0.37 0.807 0.743 0.074 0.412 0.671 9.275 0.757 11.26 0.081 1.698-0.646 1.926-0.886 1.999zM16.082 24.992c-0.014 4.645-0.023 4.8-0.1 5.020-0.129 0.346-0.426 0.577-0.838 0.652-1.182 0.202-4.882-1.164-5.654-2.080-0.148-0.202-0.24-0.404-0.258-0.607-0.020-0.148 0-0.295 0.055-0.426 0.092-0.24 0.222-0.425 3.545-4.32l0.977-1.162c0.334-0.425 0.923-0.554 1.476-0.334 0.537 0.203 0.869 0.665 0.832 1.163v2.068l-0.034 0.025zM6.011 22.021c-0.363-0.012-0.689-0.23-0.88-0.591-0.137-0.265-0.233-0.702-0.293-1.233-0.169-1.601 0.036-4.017 0.516-4.784 0.225-0.351 0.554-0.537 0.917-0.524 0.24 0 0.454 0.075 5.205 2.031l1.391 0.553c0.497 0.185 0.805 0.702 0.775 1.294-0.037 0.572-0.367 1.014-0.854 1.145l-1.975 0.628c-4.418 1.422-4.565 1.458-4.798 1.44l-0.004 0.043zM24.444 30.766h-0.005l-0.006 0.004 0.011-0.004z"></path>
</symbol>
<symbol id="icon-youtube" viewBox="0 0 32 32">
<title>youtube</title>
<path d="M30.148 8.868c-0.357-1.249-1.321-2.213-2.544-2.563l-0.026-0.006c-2.302-0.617-11.564-0.617-11.564-0.617s-9.239-0.012-11.564 0.617c-1.249 0.357-2.213 1.321-2.563 2.544l-0.006 0.026c-0.409 2.105-0.643 4.526-0.643 7.002 0 0.050 0 0.101 0 0.151l-0-0.008c-0 0.035-0 0.076-0 0.116 0 2.475 0.234 4.896 0.681 7.241l-0.038-0.24c0.357 1.249 1.321 2.213 2.544 2.563l0.026 0.006c2.299 0.618 11.564 0.618 11.564 0.618s9.238 0 11.564-0.618c1.249-0.357 2.213-1.321 2.563-2.544l0.006-0.026c0.392-2.062 0.616-4.433 0.616-6.857 0-0.092-0-0.183-0.001-0.274l0 0.014c0.001-0.085 0.001-0.186 0.001-0.286 0-2.424-0.224-4.796-0.653-7.096l0.037 0.238zM13.057 20.432v-8.853l7.71 4.433z"></path>
</symbol>
</defs>
</svg>
